<svg class="title-logo" version="1.1" viewBox="0.0 0.0 960.0 720.0" fill="none" stroke="none" stroke-linecap="square" stroke-miterlimit="10" xmlns:xlink="http://www.w3.org/1999/xlink" xmlns="http://www.w3.org/2000/svg">
      <clipPath id="p.0">
        <path d="m0 0l960.0 0l0 720.0l-960.0 0l0 -720.0z" clip-rule="nonzero" />
      </clipPath>
      <g clip-path="url(#p.0)">
        <path fill="#000000" fill-opacity="0.0" d="m0 0l960.0 0l0 720.0l-960.0 0z" fill-rule="evenodd" />
        <path fill="#096f9d" d="m369.12903 360.0l0 0c0 -165.95505 49.615295 -300.4882 110.81891 -300.4882l0 0c29.390991 0 57.578186 31.65849 78.36078 88.010956c20.782593 56.352463 32.45813 132.78282 32.45813 212.47725l0 0c0 165.95502 -49.615356 300.48816 -110.81891 300.48816l0 0c-61.203613 0 -110.81891 -134.53314 -110.81891 -300.48816zm20.563568 0l0 0c0 74.24063 9.509003 145.44055 26.43515 197.93658c16.926178 52.496094 39.882965 81.98804 63.82019 81.98804l0 0c49.84662 0 90.25531 -125.32654 90.25531 -279.92462l0 0c0 -154.59811 -40.40869 -279.92465 -90.25531 -279.92465l0 0c-49.84665 0 -90.25534 125.32653 -90.25534 279.92465z" fill-rule="evenodd" />
        <path fill="#096f9d" d="m540.8189 267.3948l0 0c138.69739 91.070465 223.9043 206.37653 190.31494 257.5433l0 0c-16.130188 24.571167 -58.05835 30.762878 -116.56085 17.213013c-58.502502 -13.549927 -128.78705 -45.731415 -195.3919 -89.464966l0 0c-138.69739 -91.070465 -223.9043 -206.37653 -190.31494 -257.54333l0 0c33.589355 -51.166794 173.25534 -18.818481 311.95276 72.25197zm-11.2855835 17.191345l0 0c-62.045685 -40.740005 -126.76886 -71.86177 -179.93112 -86.51886c-53.16223 -14.6571045 -90.40881 -11.648895 -103.54587 8.362839l0 0c-27.356506 41.672287 55.206818 144.22804 184.41034 229.06468l0 0c129.20349 84.83667 256.12048 119.82831 283.477 78.156006l0 0c27.356506 -41.67227 -55.206787 -144.22803 -184.41034 -229.06467z" fill-rule="evenodd" />
        <path fill="#096f9d" d="m418.17862 268.03745l0 0c137.69724 -92.56639 277.00363 -126.41649 311.14963 -75.60629l0 0c16.39746 24.399918 5.8554688 65.458954 -29.306824 114.14456c-35.162354 48.68564 -92.0647 101.009796 -158.18927 145.46173l0 0c-137.69717 92.56644 -277.0036 126.416534 -311.1496 75.60629l0 0c-34.14598 -50.81018 49.798874 -167.03989 187.49605 -259.6063zm11.472595 17.071533l0 0c-61.59735 41.40857 -115.36664 89.01538 -149.47928 132.34747c-34.112656 43.332092 -45.774307 78.839905 -32.419556 98.71219l0 0c27.809845 41.381836 154.33743 5.026184 282.60724 -81.2027l0 0c128.26978 -86.22888 209.70868 -189.67781 181.8988 -231.05968l0 0c-27.809875 -41.38185 -154.3374 -5.026169 -282.6072 81.20271z" fill-rule="evenodd" />
        <path fill="#096f9d" d="m289.8281 539.07086l0 0c0 -16.098877 13.05072 -29.149597 29.149597 -29.149597l0 0c7.730957 0 15.145264 3.071106 20.611877 8.53772c5.466614 5.466614 8.53772 12.88092 8.53772 20.611877l0 0c0 16.098877 -13.05072 29.149597 -29.149597 29.149597l0 0c-16.098877 0 -29.149597 -13.05072 -29.149597 -29.149597z" fill-rule="evenodd" />
        <path stroke="#ffffff" stroke-width="12.0" stroke-linejoin="round" stroke-linecap="butt" d="m289.8281 539.07086l0 0c0 -16.098877 13.05072 -29.149597 29.149597 -29.149597l0 0c7.730957 0 15.145264 3.071106 20.611877 8.53772c5.466614 5.466614 8.53772 12.88092 8.53772 20.611877l0 0c0 16.098877 -13.05072 29.149597 -29.149597 29.149597l0 0c-16.098877 0 -29.149597 -13.05072 -29.149597 -29.149597z" fill-rule="evenodd" />
        <path fill="#096f9d" d="m389.1168 129.58005l0 0c0 -16.098877 13.05072 -29.149605 29.149628 -29.149605l0 0c7.730957 0 15.145264 3.0711136 20.611877 8.537727c5.466614 5.466606 8.53772 12.880928 8.53772 20.611877l0 0c0 16.098892 -13.05072 29.149612 -29.149597 29.149612l0 0c-16.098907 0 -29.149628 -13.05072 -29.149628 -29.149612z" fill-rule="evenodd" />
        <path stroke="#ffffff" stroke-width="12.0" stroke-linejoin="round" stroke-linecap="butt" d="m389.1168 129.58005l0 0c0 -16.098877 13.05072 -29.149605 29.149628 -29.149605l0 0c7.730957 0 15.145264 3.0711136 20.611877 8.537727c5.466614 5.466606 8.53772 12.880928 8.53772 20.611877l0 0c0 16.098892 -13.05072 29.149612 -29.149597 29.149612l0 0c-16.098907 0 -29.149628 -13.05072 -29.149628 -29.149612z" fill-rule="evenodd" />
        <path fill="#096f9d" d="m662.3924 300.13123l0 0c0 -16.098877 13.05072 -29.149597 29.149597 -29.149597l0 0c7.730957 0 15.145264 3.071106 20.611877 8.53772c5.466614 5.466614 8.53772 12.88092 8.53772 20.611877l0 0c0 16.098877 -13.05072 29.149628 -29.149597 29.149628l0 0c-16.098877 0 -29.149597 -13.050751 -29.149597 -29.149628z" fill-rule="evenodd" />
        <path stroke="#ffffff" stroke-width="12.0" stroke-linejoin="round" stroke-linecap="butt" d="m662.3924 300.13123l0 0c0 -16.098877 13.05072 -29.149597 29.149597 -29.149597l0 0c7.730957 0 15.145264 3.071106 20.611877 8.53772c5.466614 5.466614 8.53772 12.88092 8.53772 20.611877l0 0c0 16.098877 -13.05072 29.149628 -29.149597 29.149628l0 0c-16.098877 0 -29.149597 -13.050751 -29.149597 -29.149628z" fill-rule="evenodd" />
        <path fill="#096f9d" d="m468.46857 299.61603c-3.480133 0.6062927 -6.0060425 1.4371033 -7.5777283 2.4924927c-1.5491943 1.0329285 -3.2106934 2.0546265 -4.984436 3.065094c-0.85317993 0.42663574 -1.9084473 0.8196106 -3.1657715 1.178894c-1.2573547 0.3368225 -2.5034485 0.89819336 -3.7383423 1.6841125c-2.8739014 1.34729 -5.6467896 2.9191284 -8.318634 4.715515c-2.6493835 1.7963867 -5.0742493 3.1324463 -7.274597 4.008209c-1.1899719 0.47155762 -2.638153 0.89819336 -4.3445435 1.2799072c-1.7063904 0.35928345 -3.1208801 0.9880371 -4.2434998 1.8862305c-1.5941467 1.4146423 -2.649414 2.6833496 -3.165802 3.8060913c-0.49395752 1.1003113 -1.0328064 1.6729126 -1.6165771 1.717804c-0.048980713 0.008178711 -0.10168457 0.012237549 -0.15811157 0.012237549c-0.2538147 0 -0.5828247 -0.08267212 -0.986969 -0.24801636c-0.20581055 -0.093566895 -0.505188 -0.14035034 -0.8981018 -0.14035034c-0.55007935 0 -1.2835083 0.09170532 -2.2003174 0.27508545c-3.300537 1.5269165 -6.7357483 2.7956238 -10.305695 3.8060913c-3.5699158 1.010498 -7.3194885 2.4251404 -11.248657 4.243988c-2.851471 1.2799377 -5.5906677 2.8293152 -8.21759 4.648163c-2.6269531 1.8188477 -5.0630493 3.22229 -7.3082886 4.2102966c-1.0552673 0.47155762 -2.301361 0.9094238 -3.7383118 1.3135986c-1.4145203 0.38174438 -2.9412842 0.8196106 -4.5803223 1.3136292c-1.6165771 0.49401855 -3.199463 1.0890503 -4.7486877 1.7851562c-1.5492249 0.69610596 -2.9075928 1.5493774 -4.0751038 2.559845c-1.0552673 0.87576294 -2.2901611 2.4476013 -3.7046509 4.7155457c-1.3920593 2.2454834 -2.2677002 4.1878357 -2.6269531 5.8270264c-0.24697876 1.4146729 -0.14593506 2.761963 0.3031006 4.0419006c0.4715271 1.2799377 0.98791504 2.4588013 1.5492249 3.5366516c0.58377075 1.0553589 1.347168 2.0995178 2.2901611 3.1324463c0.94299316 1.0104675 1.8298645 1.7739258 2.660614 2.2904053c0.85317993 0.62872314 1.6614685 1.021698 2.4248657 1.1788635c0.68759155 0.13754272 1.05719 0.20632935 1.1087646 0.20632935c0.0032958984 0 0.005279541 -3.0517578E-4 0.0059814453 -8.544922E-4l0 0c0.3144226 0.31539917 0.7960205 0.9317932 1.4448242 1.8491516c0.673584 0.89819336 1.6839294 1.6392212 3.0310974 2.223053c0.9205322 0.5389099 1.818634 0.8757324 2.694275 1.0104675c0.87564087 0.1347351 1.504303 0.31436157 1.8860168 0.5389099c0.6062012 0.31436157 1.2348633 0.76348877 1.8859863 1.34729c0.65112305 0.5838318 1.4369812 1.2687073 2.3575134 2.0546265c1.1450806 0.74102783 2.177887 1.2799377 3.0984497 1.6167603c0.9205322 0.3368225 1.7625122 0.7746887 2.525879 1.3135986c1.010376 0.62875366 2.0207214 1.34729 3.0310974 2.1556702c1.0103455 0.8083801 2.1105347 1.5830688 3.3005066 2.3240967c0.98791504 0.62872314 1.9533691 1.3135986 2.8963623 2.0546265c0.94299316 0.7409973 2.0768433 1.5269165 3.4015503 2.3577576c1.0552673 0.4041748 1.8298645 0.66241455 2.323822 0.7746887c0.51641846 0.11227417 0.9654541 0.31436157 1.3471375 0.6062927c1.6390381 1.0104675 3.1096802 2.1781006 4.4119263 3.5029602c1.3246765 1.3023682 3.1321106 2.3016052 5.422241 2.9977112c2.4248657 0.673645 4.7262573 1.358551 6.9041443 2.0546265c2.200348 0.673645 4.0077515 1.4820251 5.4222717 2.4251404c0.24697876 0.15716553 0.55007935 0.5389099 0.90930176 1.1452026c0.38171387 0.6062622 1.0552673 1.3023682 2.0207214 2.0882874c1.0552673 0.853302 1.9870605 1.3697815 2.7953491 1.549408c0.830719 0.17962646 1.4144897 0.44909668 1.7512817 0.8083801c1.3471375 0.96554565 2.638153 2.3128357 3.8730469 4.04187c1.2348938 1.7290344 3.828125 2.5935364 7.7797546 2.5935364c3.0759888 -2.200592 5.029358 -4.9288635 5.8601074 -8.184814c0.830719 -3.255951 1.8523254 -6.781372 3.0647583 -10.576263c-2.0207214 -3.5927734 -4.4792786 -6.0178833 -7.375641 -7.27536c-2.8739014 -1.2574768 -5.545746 -2.6609192 -8.015503 -4.2102966c-2.649414 -1.526947 -5.2089844 -3.413147 -7.6787415 -5.6586304c-2.4473267 -2.2679749 -5.3885803 -3.8622742 -8.823822 -4.782898c-1.7810059 -0.55545044 -3.4639893 -0.8331604 -5.049011 -0.8331604c-0.2732544 0 -0.5436096 0.008270264 -0.8110657 0.024780273c-0.4989624 0.031188965 -0.93551636 0.046783447 -1.3097229 0.046783447c-0.9729614 0 -1.524292 -0.105407715 -1.6539917 -0.31625366c-0.1347351 -0.15716553 -0.11227417 -0.9094238 0.067352295 -2.2567139c0.20205688 -1.34729 -0.4041443 -3.0763245 -1.8186646 -5.1870728c-3.2555847 -1.0329285 -6.050934 -1.9311218 -8.385986 -2.69458c-2.3094177 -0.7848511 -4.417328 -1.7152405 -6.3237305 -2.7911987l0 0c0.00390625 -0.015289307 -0.14465332 -0.26376343 -0.4456787 -0.7454529c-0.336792 -0.5389099 -0.95422363 -1.1115112 -1.8523254 -1.717804c-1.167511 -0.5838318 -2.2901306 -0.9880066 -3.367859 -1.2125549c-0.2088623 -0.04788208 -0.41183472 -0.094055176 -0.6088867 -0.1385498l0 0c0.13180542 -0.010406494 0.26739502 -0.020355225 0.40679932 -0.029876709c1.010376 -0.08981323 2.1554565 -0.4041748 3.4352417 -0.9430847c2.3125916 -1.010498 4.670105 -2.2679443 7.07251 -3.7724304c2.4024048 -1.5044861 4.7486877 -2.896698 7.038849 -4.176605c2.492218 -1.1227417 5.1191406 -2.1107788 7.8807983 -2.9640503c2.7616577 -0.853302 5.512085 -1.6841125 8.251282 -2.4924927c2.7391968 -0.83084106 5.433502 -1.7851868 8.082886 -2.8630066c2.6493835 -1.0778503 5.1191406 -2.4026794 7.4093018 -3.9745178c1.3920593 -0.8532715 2.5034485 -1.5942993 3.334198 -2.2230225c0.4545288 -0.35632324 1.0704346 -0.53448486 1.8476562 -0.53448486c0.643219 0 1.3969116 0.12200928 2.261139 0.36605835c2.0880737 -1.6841125 3.9067078 -2.9752808 5.4559326 -3.8734741c1.5716553 -0.89819336 3.345398 -1.9535828 5.321228 -3.1661377c1.504303 -0.7859192 3.4239807 -1.5044556 5.7590637 -2.1556702c2.357483 -0.673645 4.2098083 -1.7739258 5.5569763 -3.3008728c1.5941162 -1.190094 2.5932617 -2.9415894 2.997406 -5.254425c0.4041443 -2.3353271 0.85317993 -4.3674927 1.3471375 -6.096527c0.6960144 -2.0658264 1.335907 -4.4348145 1.9196777 -7.106964c0.58377075 -2.6721191 -0.9093323 -4.973755 -4.479248 -6.9048767z" fill-rule="evenodd" />
        <path stroke="#ffffff" stroke-width="16.0" stroke-linejoin="round" stroke-linecap="butt" d="m468.46857 299.61603c-3.480133 0.6062927 -6.0060425 1.4371033 -7.5777283 2.4924927c-1.5491943 1.0329285 -3.2106934 2.0546265 -4.984436 3.065094c-0.85317993 0.42663574 -1.9084473 0.8196106 -3.1657715 1.178894c-1.2573547 0.3368225 -2.5034485 0.89819336 -3.7383423 1.6841125c-2.8739014 1.34729 -5.6467896 2.9191284 -8.318634 4.715515c-2.6493835 1.7963867 -5.0742493 3.1324463 -7.274597 4.008209c-1.1899719 0.47155762 -2.638153 0.89819336 -4.3445435 1.2799072c-1.7063904 0.35928345 -3.1208801 0.9880371 -4.2434998 1.8862305c-1.5941467 1.4146423 -2.649414 2.6833496 -3.165802 3.8060913c-0.49395752 1.1003113 -1.0328064 1.6729126 -1.6165771 1.717804c-0.048980713 0.008178711 -0.10168457 0.012237549 -0.15811157 0.012237549c-0.2538147 0 -0.5828247 -0.08267212 -0.986969 -0.24801636c-0.20581055 -0.093566895 -0.505188 -0.14035034 -0.8981018 -0.14035034c-0.55007935 0 -1.2835083 0.09170532 -2.2003174 0.27508545c-3.300537 1.5269165 -6.7357483 2.7956238 -10.305695 3.8060913c-3.5699158 1.010498 -7.3194885 2.4251404 -11.248657 4.243988c-2.851471 1.2799377 -5.5906677 2.8293152 -8.21759 4.648163c-2.6269531 1.8188477 -5.0630493 3.22229 -7.3082886 4.2102966c-1.0552673 0.47155762 -2.301361 0.9094238 -3.7383118 1.3135986c-1.4145203 0.38174438 -2.9412842 0.8196106 -4.5803223 1.3136292c-1.6165771 0.49401855 -3.199463 1.0890503 -4.7486877 1.7851562c-1.5492249 0.69610596 -2.9075928 1.5493774 -4.0751038 2.559845c-1.0552673 0.87576294 -2.2901611 2.4476013 -3.7046509 4.7155457c-1.3920593 2.2454834 -2.2677002 4.1878357 -2.6269531 5.8270264c-0.24697876 1.4146729 -0.14593506 2.761963 0.3031006 4.0419006c0.4715271 1.2799377 0.98791504 2.4588013 1.5492249 3.5366516c0.58377075 1.0553589 1.347168 2.0995178 2.2901611 3.1324463c0.94299316 1.0104675 1.8298645 1.7739258 2.660614 2.2904053c0.85317993 0.62872314 1.6614685 1.021698 2.4248657 1.1788635c0.68759155 0.13754272 1.05719 0.20632935 1.1087646 0.20632935c0.0032958984 0 0.005279541 -3.0517578E-4 0.0059814453 -8.544922E-4l0 0c0.3144226 0.31539917 0.7960205 0.9317932 1.4448242 1.8491516c0.673584 0.89819336 1.6839294 1.6392212 3.0310974 2.223053c0.9205322 0.5389099 1.818634 0.8757324 2.694275 1.0104675c0.87564087 0.1347351 1.504303 0.31436157 1.8860168 0.5389099c0.6062012 0.31436157 1.2348633 0.76348877 1.8859863 1.34729c0.65112305 0.5838318 1.4369812 1.2687073 2.3575134 2.0546265c1.1450806 0.74102783 2.177887 1.2799377 3.0984497 1.6167603c0.9205322 0.3368225 1.7625122 0.7746887 2.525879 1.3135986c1.010376 0.62875366 2.0207214 1.34729 3.0310974 2.1556702c1.0103455 0.8083801 2.1105347 1.5830688 3.3005066 2.3240967c0.98791504 0.62872314 1.9533691 1.3135986 2.8963623 2.0546265c0.94299316 0.7409973 2.0768433 1.5269165 3.4015503 2.3577576c1.0552673 0.4041748 1.8298645 0.66241455 2.323822 0.7746887c0.51641846 0.11227417 0.9654541 0.31436157 1.3471375 0.6062927c1.6390381 1.0104675 3.1096802 2.1781006 4.4119263 3.5029602c1.3246765 1.3023682 3.1321106 2.3016052 5.422241 2.9977112c2.4248657 0.673645 4.7262573 1.358551 6.9041443 2.0546265c2.200348 0.673645 4.0077515 1.4820251 5.4222717 2.4251404c0.24697876 0.15716553 0.55007935 0.5389099 0.90930176 1.1452026c0.38171387 0.6062622 1.0552673 1.3023682 2.0207214 2.0882874c1.0552673 0.853302 1.9870605 1.3697815 2.7953491 1.549408c0.830719 0.17962646 1.4144897 0.44909668 1.7512817 0.8083801c1.3471375 0.96554565 2.638153 2.3128357 3.8730469 4.04187c1.2348938 1.7290344 3.828125 2.5935364 7.7797546 2.5935364c3.0759888 -2.200592 5.029358 -4.9288635 5.8601074 -8.184814c0.830719 -3.255951 1.8523254 -6.781372 3.0647583 -10.576263c-2.0207214 -3.5927734 -4.4792786 -6.0178833 -7.375641 -7.27536c-2.8739014 -1.2574768 -5.545746 -2.6609192 -8.015503 -4.2102966c-2.649414 -1.526947 -5.2089844 -3.413147 -7.6787415 -5.6586304c-2.4473267 -2.2679749 -5.3885803 -3.8622742 -8.823822 -4.782898c-1.7810059 -0.55545044 -3.4639893 -0.8331604 -5.049011 -0.8331604c-0.2732544 0 -0.5436096 0.008270264 -0.8110657 0.024780273c-0.4989624 0.031188965 -0.93551636 0.046783447 -1.3097229 0.046783447c-0.9729614 0 -1.524292 -0.105407715 -1.6539917 -0.31625366c-0.1347351 -0.15716553 -0.11227417 -0.9094238 0.067352295 -2.2567139c0.20205688 -1.34729 -0.4041443 -3.0763245 -1.8186646 -5.1870728c-3.2555847 -1.0329285 -6.050934 -1.9311218 -8.385986 -2.69458c-2.3094177 -0.7848511 -4.417328 -1.7152405 -6.3237305 -2.7911987l0 0c0.00390625 -0.015289307 -0.14465332 -0.26376343 -0.4456787 -0.7454529c-0.336792 -0.5389099 -0.95422363 -1.1115112 -1.8523254 -1.717804c-1.167511 -0.5838318 -2.2901306 -0.9880066 -3.367859 -1.2125549c-0.2088623 -0.04788208 -0.41183472 -0.094055176 -0.6088867 -0.1385498l0 0c0.13180542 -0.010406494 0.26739502 -0.020355225 0.40679932 -0.029876709c1.010376 -0.08981323 2.1554565 -0.4041748 3.4352417 -0.9430847c2.3125916 -1.010498 4.670105 -2.2679443 7.07251 -3.7724304c2.4024048 -1.5044861 4.7486877 -2.896698 7.038849 -4.176605c2.492218 -1.1227417 5.1191406 -2.1107788 7.8807983 -2.9640503c2.7616577 -0.853302 5.512085 -1.6841125 8.251282 -2.4924927c2.7391968 -0.83084106 5.433502 -1.7851868 8.082886 -2.8630066c2.6493835 -1.0778503 5.1191406 -2.4026794 7.4093018 -3.9745178c1.3920593 -0.8532715 2.5034485 -1.5942993 3.334198 -2.2230225c0.4545288 -0.35632324 1.0704346 -0.53448486 1.8476562 -0.53448486c0.643219 0 1.3969116 0.12200928 2.261139 0.36605835c2.0880737 -1.6841125 3.9067078 -2.9752808 5.4559326 -3.8734741c1.5716553 -0.89819336 3.345398 -1.9535828 5.321228 -3.1661377c1.504303 -0.7859192 3.4239807 -1.5044556 5.7590637 -2.1556702c2.357483 -0.673645 4.2098083 -1.7739258 5.5569763 -3.3008728c1.5941162 -1.190094 2.5932617 -2.9415894 2.997406 -5.254425c0.4041443 -2.3353271 0.85317993 -4.3674927 1.3471375 -6.096527c0.6960144 -2.0658264 1.335907 -4.4348145 1.9196777 -7.106964c0.58377075 -2.6721191 -0.9093323 -4.973755 -4.479248 -6.9048767z" fill-rule="evenodd" />
        <path fill="#096f9d" d="m518.0048 299.61603c-3.2556152 2.178131 -5.298767 4.9064026 -6.129486 8.184814c-0.8307495 3.255951 -1.852356 6.781372 -3.0647888 10.576263c2.0207214 3.5703125 4.479248 6.029114 7.3756714 7.376404c2.9187622 1.3473206 5.6691895 2.7282715 8.251221 4.1429443c2.4922485 1.5044861 5.006897 3.390686 7.5440674 5.6586304c2.5371094 2.2454834 5.512024 3.8285522 8.924805 4.7492065c1.7810059 0.5554199 3.4558716 0.8331604 5.024536 0.8331604c0.27044678 0 0.5377197 -0.008270264 0.8018799 -0.024780273c0.6062012 -0.03741455 1.1188965 -0.056152344 1.5380249 -0.056152344c0.8381958 0 1.3022461 0.07485962 1.3920288 0.22457886c0.17962646 0.24697876 0.168396 1.032898 -0.033691406 2.3577576c-0.17962646 1.3248291 0.4378662 3.0538635 1.852356 5.1870728c3.2556152 1.0329285 6.0284424 1.9311218 8.3186035 2.69458c2.312622 0.76348877 4.4231567 1.7514954 6.331604 2.9640503c0.044921875 0.022460938 0.23571777 0.2694702 0.57250977 0.74102783c0.336792 0.4715271 0.8981323 0.96554565 1.68396 1.4820251c1.010376 0.62872314 2.0543823 1.0553589 3.132141 1.2799072c0.26904297 0.05606079 0.5276489 0.1121521 0.77575684 0.16821289l0 0c-0.13116455 0.011474609 -0.26623535 0.022766113 -0.40533447 0.03387451c-1.1001587 0.06738281 -2.2115479 0.38174438 -3.3341675 0.94311523c-2.4248657 0.9880066 -4.793579 2.2679443 -7.106201 3.8397827c-2.2901611 1.549408 -4.692566 2.8854675 -7.2072144 4.008209c-2.6044922 1.1676636 -5.2314453 2.1893616 -7.8808594 3.065094c-2.626892 0.8532715 -5.298767 1.717804 -8.015503 2.5935364c-2.7167358 0.8757324 -5.3997803 1.8188477 -8.049194 2.8293152c-2.6269531 0.9880371 -5.0742188 2.2679443 -7.341919 3.8397827c-1.5941772 0.87576294 -2.7953491 1.6616821 -3.6036377 2.3577576c-0.45965576 0.40716553 -1.0882568 0.6107483 -1.8858643 0.6107483c-0.5661011 0 -1.2172241 -0.10253906 -1.9534912 -0.30758667c-2.2228394 1.6167603 -4.0863647 2.8517456 -5.5906677 3.7050476c-1.4818726 0.83084106 -3.334198 1.8749695 -5.5569763 3.1324463c-1.3695984 0.9206848 -3.2219238 1.6616821 -5.557007 2.223053c-2.3350525 0.56137085 -4.2322693 1.5718384 -5.691681 3.0314026c-1.6165771 1.4146729 -2.5820312 3.2671814 -2.8963623 5.5575867c-0.31433105 2.2679443 -0.71847534 4.2552185 -1.2124329 5.961792c-0.6960144 2.2230225 -1.335907 4.625702 -1.9196777 7.208008c-0.6062317 2.582306 0.88687134 4.8502502 4.479248 6.803833c3.480133 -0.6062927 5.9835815 -1.4259033 7.5103455 -2.4588013c1.5492249 -1.0329285 3.2106934 -1.9872742 4.984436 -2.8630066c0.9430237 -0.47155762 2.0431824 -0.9206543 3.3005066 -1.34729c1.2573547 -0.42663574 2.4922485 -1.0104675 3.7046814 -1.7514954c2.7167053 -1.3697205 5.433502 -2.9415588 8.150238 -4.715515c2.7167358 -1.7963867 5.1865234 -3.1324768 7.4093018 -4.008209c1.2124023 -0.47155762 2.6381226 -0.8869629 4.2771606 -1.2462463c1.6390381 -0.38174438 2.986206 -0.99923706 4.041443 -1.8525085c1.7737427 -1.4371338 2.8851318 -2.717041 3.3342285 -3.8398132c0.47149658 -1.1227417 0.95422363 -1.7065735 1.4481812 -1.7514648c0.05987549 -0.0074768066 0.12036133 -0.011230469 0.18145752 -0.011230469c0.30560303 0 0.62683105 0.093566895 0.96362305 0.28067017c0.16687012 0.07910156 0.43865967 0.118652344 0.8153076 0.118652344c0.58587646 0 1.4255371 -0.095703125 2.5188599 -0.28704834c3.1882324 -1.5044861 6.567322 -2.7282715 10.137268 -3.6713867c3.5924072 -0.96554565 7.34198 -2.4251099 11.248657 -4.3786926c2.986206 -1.2799377 5.725403 -2.7956238 8.21759 -4.547119c2.5147095 -1.7739258 4.962036 -3.2222595 7.34198 -4.3450317c1.0327759 -0.44909668 2.2901611 -0.86450195 3.7719727 -1.2462463c1.5043335 -0.4041748 3.0198975 -0.842041 4.546631 -1.3135986c1.5492554 -0.49401855 3.132141 -1.0441589 4.7487183 -1.6504517c1.6165771 -0.62872314 3.0647583 -1.5044556 4.3445435 -2.6271973c1.0552368 -1.0329285 2.2564697 -2.6496887 3.6036377 -4.850281c1.3695679 -2.2005615 2.2452393 -4.04187 2.626892 -5.5238953c0.42663574 -2.537384 -0.168396 -5.0298767 -1.7849731 -7.477478c-1.5941162 -2.4475708 -3.2106934 -4.3338013 -4.8497314 -5.6586304c-0.9654541 -0.7185669 -1.8635254 -1.1564331 -2.694275 -1.3135986c-0.8082886 -0.15719604 -1.2910156 -0.2694702 -1.4481812 -0.33685303c-0.29187012 -0.24697876 -0.7072754 -0.79711914 -1.2460938 -1.6504211c-0.5388794 -0.8532715 -1.5267944 -1.6391907 -2.963745 -2.3577576c-0.98791504 -0.38174438 -1.8972168 -0.63998413 -2.7279663 -0.7746887c-0.8307495 -0.1347351 -1.493103 -0.32562256 -1.9870605 -0.5726013c-0.44903564 -0.22454834 -0.9654541 -0.6512146 -1.5491943 -1.2799377c-0.58374023 -0.6511841 -1.347168 -1.369751 -2.2901611 -2.1556702c-1.1450806 -0.9655762 -2.2340088 -1.5942993 -3.2668457 -1.8862c-1.010315 -0.29193115 -1.9196777 -0.684906 -2.7279663 -1.178894c-0.987854 -0.62875366 -1.9421387 -1.2911682 -2.862671 -1.9872437c-0.8980713 -0.7185669 -1.9309082 -1.5157166 -3.0984497 -2.391449c-1.0776978 -0.69610596 -2.1217651 -1.4146729 -3.13208 -2.1556702c-1.010376 -0.74102783 -2.1329956 -1.4932556 -3.367859 -2.2567139c-0.8981323 -0.44909668 -1.7064209 -0.72979736 -2.4248657 -0.84207153c-0.6960449 -0.1347351 -1.1900024 -0.29193115 -1.4818726 -0.47155762c-1.3920898 -0.94311523 -2.7953491 -2.1107483 -4.209839 -3.5029602c-1.3920288 -1.3922119 -3.2893066 -2.4363403 -5.6917114 -3.1324463c-2.2677002 -0.673645 -4.4904785 -1.34729 -6.668335 -2.0209656c-2.1779175 -0.69610596 -3.9067383 -1.5044556 -5.1865234 -2.4251099c-0.35925293 -0.22454834 -0.75219727 -0.63998413 -1.178772 -1.2462463c-0.4265747 -0.6062927 -1.1001587 -1.2799377 -2.020691 -2.020935c-1.0328369 -0.83084106 -1.9533691 -1.34729 -2.7616577 -1.549408c-0.8082886 -0.2020874 -1.3920898 -0.4378662 -1.7513428 -0.7073059c-1.2573242 -0.94311523 -2.5819702 -2.3016357 -3.97406 -4.075592c-1.3695679 -1.7739258 -3.850586 -2.6608887 -7.442993 -2.6608887z" fill-rule="evenodd" />
        <path stroke="#ffffff" stroke-width="16.0" stroke-linejoin="round" stroke-linecap="butt" d="m518.0048 299.61603c-3.2556152 2.178131 -5.298767 4.9064026 -6.129486 8.184814c-0.8307495 3.255951 -1.852356 6.781372 -3.0647888 10.576263c2.0207214 3.5703125 4.479248 6.029114 7.3756714 7.376404c2.9187622 1.3473206 5.6691895 2.7282715 8.251221 4.1429443c2.4922485 1.5044861 5.006897 3.390686 7.5440674 5.6586304c2.5371094 2.2454834 5.512024 3.8285522 8.924805 4.7492065c1.7810059 0.5554199 3.4558716 0.8331604 5.024536 0.8331604c0.27044678 0 0.5377197 -0.008270264 0.8018799 -0.024780273c0.6062012 -0.03741455 1.1188965 -0.056152344 1.5380249 -0.056152344c0.8381958 0 1.3022461 0.07485962 1.3920288 0.22457886c0.17962646 0.24697876 0.168396 1.032898 -0.033691406 2.3577576c-0.17962646 1.3248291 0.4378662 3.0538635 1.852356 5.1870728c3.2556152 1.0329285 6.0284424 1.9311218 8.3186035 2.69458c2.312622 0.76348877 4.4231567 1.7514954 6.331604 2.9640503c0.044921875 0.022460938 0.23571777 0.2694702 0.57250977 0.74102783c0.336792 0.4715271 0.8981323 0.96554565 1.68396 1.4820251c1.010376 0.62872314 2.0543823 1.0553589 3.132141 1.2799072c0.26904297 0.05606079 0.5276489 0.1121521 0.77575684 0.16821289l0 0c-0.13116455 0.011474609 -0.26623535 0.022766113 -0.40533447 0.03387451c-1.1001587 0.06738281 -2.2115479 0.38174438 -3.3341675 0.94311523c-2.4248657 0.9880066 -4.793579 2.2679443 -7.106201 3.8397827c-2.2901611 1.549408 -4.692566 2.8854675 -7.2072144 4.008209c-2.6044922 1.1676636 -5.2314453 2.1893616 -7.8808594 3.065094c-2.626892 0.8532715 -5.298767 1.717804 -8.015503 2.5935364c-2.7167358 0.8757324 -5.3997803 1.8188477 -8.049194 2.8293152c-2.6269531 0.9880371 -5.0742188 2.2679443 -7.341919 3.8397827c-1.5941772 0.87576294 -2.7953491 1.6616821 -3.6036377 2.3577576c-0.45965576 0.40716553 -1.0882568 0.6107483 -1.8858643 0.6107483c-0.5661011 0 -1.2172241 -0.10253906 -1.9534912 -0.30758667c-2.2228394 1.6167603 -4.0863647 2.8517456 -5.5906677 3.7050476c-1.4818726 0.83084106 -3.334198 1.8749695 -5.5569763 3.1324463c-1.3695984 0.9206848 -3.2219238 1.6616821 -5.557007 2.223053c-2.3350525 0.56137085 -4.2322693 1.5718384 -5.691681 3.0314026c-1.6165771 1.4146729 -2.5820312 3.2671814 -2.8963623 5.5575867c-0.31433105 2.2679443 -0.71847534 4.2552185 -1.2124329 5.961792c-0.6960144 2.2230225 -1.335907 4.625702 -1.9196777 7.208008c-0.6062317 2.582306 0.88687134 4.8502502 4.479248 6.803833c3.480133 -0.6062927 5.9835815 -1.4259033 7.5103455 -2.4588013c1.5492249 -1.0329285 3.2106934 -1.9872742 4.984436 -2.8630066c0.9430237 -0.47155762 2.0431824 -0.9206543 3.3005066 -1.34729c1.2573547 -0.42663574 2.4922485 -1.0104675 3.7046814 -1.7514954c2.7167053 -1.3697205 5.433502 -2.9415588 8.150238 -4.715515c2.7167358 -1.7963867 5.1865234 -3.1324768 7.4093018 -4.008209c1.2124023 -0.47155762 2.6381226 -0.8869629 4.2771606 -1.2462463c1.6390381 -0.38174438 2.986206 -0.99923706 4.041443 -1.8525085c1.7737427 -1.4371338 2.8851318 -2.717041 3.3342285 -3.8398132c0.47149658 -1.1227417 0.95422363 -1.7065735 1.4481812 -1.7514648c0.05987549 -0.0074768066 0.12036133 -0.011230469 0.18145752 -0.011230469c0.30560303 0 0.62683105 0.093566895 0.96362305 0.28067017c0.16687012 0.07910156 0.43865967 0.118652344 0.8153076 0.118652344c0.58587646 0 1.4255371 -0.095703125 2.5188599 -0.28704834c3.1882324 -1.5044861 6.567322 -2.7282715 10.137268 -3.6713867c3.5924072 -0.96554565 7.34198 -2.4251099 11.248657 -4.3786926c2.986206 -1.2799377 5.725403 -2.7956238 8.21759 -4.547119c2.5147095 -1.7739258 4.962036 -3.2222595 7.34198 -4.3450317c1.0327759 -0.44909668 2.2901611 -0.86450195 3.7719727 -1.2462463c1.5043335 -0.4041748 3.0198975 -0.842041 4.546631 -1.3135986c1.5492554 -0.49401855 3.132141 -1.0441589 4.7487183 -1.6504517c1.6165771 -0.62872314 3.0647583 -1.5044556 4.3445435 -2.6271973c1.0552368 -1.0329285 2.2564697 -2.6496887 3.6036377 -4.850281c1.3695679 -2.2005615 2.2452393 -4.04187 2.626892 -5.5238953c0.42663574 -2.537384 -0.168396 -5.0298767 -1.7849731 -7.477478c-1.5941162 -2.4475708 -3.2106934 -4.3338013 -4.8497314 -5.6586304c-0.9654541 -0.7185669 -1.8635254 -1.1564331 -2.694275 -1.3135986c-0.8082886 -0.15719604 -1.2910156 -0.2694702 -1.4481812 -0.33685303c-0.29187012 -0.24697876 -0.7072754 -0.79711914 -1.2460938 -1.6504211c-0.5388794 -0.8532715 -1.5267944 -1.6391907 -2.963745 -2.3577576c-0.98791504 -0.38174438 -1.8972168 -0.63998413 -2.7279663 -0.7746887c-0.8307495 -0.1347351 -1.493103 -0.32562256 -1.9870605 -0.5726013c-0.44903564 -0.22454834 -0.9654541 -0.6512146 -1.5491943 -1.2799377c-0.58374023 -0.6511841 -1.347168 -1.369751 -2.2901611 -2.1556702c-1.1450806 -0.9655762 -2.2340088 -1.5942993 -3.2668457 -1.8862c-1.010315 -0.29193115 -1.9196777 -0.684906 -2.7279663 -1.178894c-0.987854 -0.62875366 -1.9421387 -1.2911682 -2.862671 -1.9872437c-0.8980713 -0.7185669 -1.9309082 -1.5157166 -3.0984497 -2.391449c-1.0776978 -0.69610596 -2.1217651 -1.4146729 -3.13208 -2.1556702c-1.010376 -0.74102783 -2.1329956 -1.4932556 -3.367859 -2.2567139c-0.8981323 -0.44909668 -1.7064209 -0.72979736 -2.4248657 -0.84207153c-0.6960449 -0.1347351 -1.1900024 -0.29193115 -1.4818726 -0.47155762c-1.3920898 -0.94311523 -2.7953491 -2.1107483 -4.209839 -3.5029602c-1.3920288 -1.3922119 -3.2893066 -2.4363403 -5.6917114 -3.1324463c-2.2677002 -0.673645 -4.4904785 -1.34729 -6.668335 -2.0209656c-2.1779175 -0.69610596 -3.9067383 -1.5044556 -5.1865234 -2.4251099c-0.35925293 -0.22454834 -0.75219727 -0.63998413 -1.178772 -1.2462463c-0.4265747 -0.6062927 -1.1001587 -1.2799377 -2.020691 -2.020935c-1.0328369 -0.83084106 -1.9533691 -1.34729 -2.7616577 -1.549408c-0.8082886 -0.2020874 -1.3920898 -0.4378662 -1.7513428 -0.7073059c-1.2573242 -0.94311523 -2.5819702 -2.3016357 -3.97406 -4.075592c-1.3695679 -1.7739258 -3.850586 -2.6608887 -7.442993 -2.6608887z" fill-rule="evenodd" />
        <path fill="#096f9d" d="m468.46857 300.43558c-3.480133 0.6062927 -6.0060425 1.4371338 -7.5777283 2.4924927c-1.5491943 1.0329285 -3.2106934 2.0546265 -4.984436 3.065094c-0.85317993 0.42666626 -1.9084473 0.8196106 -3.1657715 1.178894c-1.2573547 0.3368225 -2.5034485 0.89819336 -3.7383423 1.6841125c-2.8739014 1.34729 -5.6467896 2.9191284 -8.318634 4.7155457c-2.6493835 1.7963867 -5.0742493 3.1324463 -7.274597 4.0081787c-1.1899719 0.47155762 -2.638153 0.89819336 -4.3445435 1.2799377c-1.7063904 0.35928345 -3.1208801 0.9880066 -4.2434998 1.8862c-1.5941467 1.4146729 -2.649414 2.6833801 -3.165802 3.8061218c-0.49395752 1.1002808 -1.0328064 1.6728821 -1.6165771 1.717804c-0.048980713 0.008148193 -0.10168457 0.012237549 -0.15811157 0.012237549c-0.2538147 0 -0.5828247 -0.08267212 -0.986969 -0.24801636c-0.20581055 -0.093566895 -0.505188 -0.14035034 -0.8981018 -0.14035034c-0.55007935 0 -1.2835083 0.091674805 -2.2003174 0.27505493c-3.300537 1.526947 -6.7357483 2.7956543 -10.305695 3.8061218c-3.5699158 1.0104675 -7.3194885 2.4251404 -11.248657 4.2439575c-2.851471 1.2799377 -5.5906677 2.8293457 -8.21759 4.6481934c-2.6269531 1.8188171 -5.0630493 3.2222595 -7.3082886 4.210266c-1.0552673 0.47155762 -2.301361 0.9094238 -3.7383118 1.3136292c-1.4145203 0.38171387 -2.9412842 0.8195801 -4.5803223 1.3135986c-1.6165771 0.49401855 -3.199463 1.0890808 -4.7486877 1.7851562c-1.5492249 0.69610596 -2.9075928 1.549408 -4.0751038 2.5598755c-1.0552673 0.8757324 -2.2901611 2.4475708 -3.7046509 4.715515c-1.3920593 2.245514 -2.2677002 4.187866 -2.6269531 5.827057c-0.24697876 1.4146423 -0.14593506 2.761963 0.3031006 4.04187c0.4715271 1.2799377 0.98791504 2.4588318 1.5492249 3.5366516c0.58377075 1.0553894 1.347168 2.0995483 2.2901611 3.1324463c0.94299316 1.010498 1.8298645 1.7739563 2.660614 2.2904053c0.85317993 0.62875366 1.6614685 1.021698 2.4248657 1.178894c0.68759155 0.13754272 1.05719 0.20629883 1.1087646 0.20629883c0.0032958984 0 0.005279541 -2.746582E-4 0.0059814453 -8.544922E-4l0 0c0.3144226 0.31539917 0.7960205 0.93182373 1.4448242 1.8491821c0.673584 0.89819336 1.6839294 1.6391907 3.0310974 2.2230225c0.9205322 0.5389099 1.818634 0.8757324 2.694275 1.0104675c0.87564087 0.1347351 1.504303 0.3143921 1.8860168 0.5389404c0.6062012 0.31436157 1.2348633 0.76345825 1.8859863 1.34729c0.65112305 0.5838318 1.4369812 1.2687073 2.3575134 2.0546265c1.1450806 0.7409973 2.177887 1.2799072 3.0984497 1.6167297c0.9205322 0.3368225 1.7625122 0.7746887 2.525879 1.3136292c1.010376 0.62872314 2.0207214 1.34729 3.0310974 2.1556702c1.0103455 0.8083801 2.1105347 1.5830688 3.3005066 2.3240662c0.98791504 0.62872314 1.9533691 1.3136292 2.8963623 2.0546265c0.94299316 0.74102783 2.0768433 1.526947 3.4015503 2.3577576c1.0552673 0.40420532 1.8298645 0.66241455 2.323822 0.7746887c0.51641846 0.11230469 0.9654541 0.3143921 1.3471375 0.6062927c1.6390381 1.0104675 3.1096802 2.178131 4.4119263 3.5029602c1.3246765 1.3023987 3.1321106 2.3016357 5.422241 2.9977417c2.4248657 0.673645 4.7262573 1.3585205 6.9041443 2.0546265c2.200348 0.673645 4.0077515 1.4820251 5.4222717 2.4251099c0.24697876 0.15719604 0.55007935 0.5389404 0.90930176 1.1452026c0.38171387 0.6062927 1.0552673 1.3023987 2.0207214 2.0883179c1.0552673 0.8532715 1.9870605 1.369751 2.7953491 1.5493774c0.830719 0.17965698 1.4144897 0.44909668 1.7512817 0.8083801c1.3471375 0.96554565 2.638153 2.3128357 3.8730469 4.04187c1.2348938 1.7290344 3.828125 2.5935364 7.7797546 2.5935364c3.0759888 -2.2005615 5.029358 -4.928833 5.8601074 -8.184784c0.830719 -3.255951 1.8523254 -6.781372 3.0647583 -10.576263c-2.0207214 -3.5927734 -4.4792786 -6.017914 -7.375641 -7.2753906c-2.8739014 -1.2574768 -5.545746 -2.6608887 -8.015503 -4.2102966c-2.649414 -1.526947 -5.2089844 -3.413147 -7.6787415 -5.6586304c-2.4473267 -2.2679443 -5.3885803 -3.8622437 -8.823822 -4.782898c-1.7810059 -0.5554199 -3.4639893 -0.8331299 -5.049011 -0.8331299c-0.2732544 0 -0.5436096 0.008239746 -0.8110657 0.024749756c-0.4989624 0.031188965 -0.93551636 0.046783447 -1.3097229 0.046783447c-0.9729614 0 -1.524292 -0.105407715 -1.6539917 -0.31622314c-0.1347351 -0.15719604 -0.11227417 -0.9094238 0.067352295 -2.2567139c0.20205688 -1.34729 -0.4041443 -3.0763245 -1.8186646 -5.1871033c-3.2555847 -1.0329285 -6.050934 -1.9311218 -8.385986 -2.69458c-2.3094177 -0.7848511 -4.417328 -1.7152405 -6.3237305 -2.7911987l0 0c0.00390625 -0.015258789 -0.14465332 -0.26376343 -0.4456787 -0.7454529c-0.336792 -0.5389099 -0.95422363 -1.1115112 -1.8523254 -1.717804c-1.167511 -0.58380127 -2.2901306 -0.9880066 -3.367859 -1.2125549c-0.2088623 -0.047851562 -0.41183472 -0.094055176 -0.6088867 -0.1385498l0 0c0.13180542 -0.010406494 0.26739502 -0.020355225 0.40679932 -0.029846191c1.010376 -0.08984375 2.1554565 -0.40420532 3.4352417 -0.94311523c2.3125916 -1.0104675 4.670105 -2.2679443 7.07251 -3.7724304c2.4024048 -1.5044861 4.7486877 -2.8966675 7.038849 -4.176605c2.492218 -1.1227417 5.1191406 -2.1107483 7.8807983 -2.9640503c2.7616577 -0.8532715 5.512085 -1.6841125 8.251282 -2.4924927c2.7391968 -0.83084106 5.433502 -1.7851562 8.082886 -2.8630066c2.6493835 -1.0778198 5.1191406 -2.402649 7.4093018 -3.9745178c1.3920593 -0.8532715 2.5034485 -1.5942688 3.334198 -2.2230225c0.4545288 -0.35632324 1.0704346 -0.53445435 1.8476562 -0.53445435c0.643219 0 1.3969116 0.12200928 2.261139 0.36605835c2.0880737 -1.6841431 3.9067078 -2.9752808 5.4559326 -3.8734741c1.5716553 -0.89819336 3.345398 -1.9535828 5.321228 -3.1661377c1.504303 -0.7859192 3.4239807 -1.5044861 5.7590637 -2.1556702c2.357483 -0.673645 4.2098083 -1.7739563 5.5569763 -3.3008728c1.5941162 -1.1901245 2.5932617 -2.9415894 2.997406 -5.2544556c0.4041443 -2.3352966 0.85317993 -4.367462 1.3471375 -6.0964966c0.6960144 -2.065857 1.335907 -4.434845 1.9196777 -7.106964c0.58377075 -2.6721497 -0.9093323 -4.9737854 -4.479248 -6.904907z" fill-rule="evenodd" />
        <path fill="#096f9d" d="m518.0048 300.43558c-3.2556152 2.178131 -5.298767 4.9064026 -6.129486 8.184814c-0.8307495 3.2559814 -1.852356 6.7814026 -3.0647888 10.576263c2.0207214 3.5703125 4.479248 6.0291443 7.3756714 7.3764343c2.9187622 1.34729 5.6691895 2.7282715 8.251221 4.142914c2.4922485 1.5044861 5.006897 3.3907166 7.5440674 5.6586304c2.5371094 2.245514 5.512024 3.8285828 8.924805 4.749237c1.7810059 0.5554199 3.4558716 0.8331299 5.024536 0.8331299c0.27044678 0 0.5377197 -0.008239746 0.8018799 -0.024780273c0.6062012 -0.03741455 1.1188965 -0.056121826 1.5380249 -0.056121826c0.8381958 0 1.3022461 0.07485962 1.3920288 0.22454834c0.17962646 0.24700928 0.168396 1.0329285 -0.033691406 2.3577576c-0.17962646 1.3248291 0.4378662 3.0538635 1.852356 5.1870728c3.2556152 1.0329285 6.0284424 1.9311523 8.3186035 2.6946106c2.312622 0.76345825 4.4231567 1.7514648 6.331604 2.9640503c0.044921875 0.02243042 0.23571777 0.2694397 0.57250977 0.7409973c0.336792 0.47155762 0.8981323 0.9655762 1.68396 1.4820251c1.010376 0.62875366 2.0543823 1.0553894 3.132141 1.2799377c0.26904297 0.05606079 0.5276489 0.11212158 0.77575684 0.16818237l0 0c-0.13116455 0.011474609 -0.26623535 0.022766113 -0.40533447 0.03390503c-1.1001587 0.067352295 -2.2115479 0.38171387 -3.3341675 0.94311523c-2.4248657 0.9880066 -4.793579 2.2679138 -7.106201 3.8397827c-2.2901611 1.5493774 -4.692566 2.885437 -7.2072144 4.0081787c-2.6044922 1.1676636 -5.2314453 2.1893616 -7.8808594 3.065094c-2.626892 0.853302 -5.298767 1.717804 -8.015503 2.5935364c-2.7167358 0.87576294 -5.3997803 1.8188477 -8.049194 2.8293457c-2.6269531 0.9880066 -5.0742188 2.2679443 -7.341919 3.8397827c-1.5941772 0.8757324 -2.7953491 1.6616516 -3.6036377 2.3577576c-0.45965576 0.407135 -1.0882568 0.6107178 -1.8858643 0.6107178c-0.5661011 0 -1.2172241 -0.10253906 -1.9534912 -0.30758667c-2.2228394 1.6167603 -4.0863647 2.8517761 -5.5906677 3.7050781c-1.4818726 0.83081055 -3.334198 1.8749695 -5.5569763 3.1324463c-1.3695984 0.9206543 -3.2219238 1.6616516 -5.557007 2.2230225c-2.3350525 0.56137085 -4.2322693 1.5718384 -5.691681 3.031433c-1.6165771 1.4146423 -2.5820312 3.2671814 -2.8963623 5.5575867c-0.31433105 2.2679443 -0.71847534 4.255188 -1.2124329 5.9617615c-0.6960144 2.2230225 -1.335907 4.625702 -1.9196777 7.208008c-0.6062317 2.5823364 0.88687134 4.850281 4.479248 6.803833c3.480133 -0.6062622 5.9835815 -1.4258728 7.5103455 -2.4588013c1.5492249 -1.0329285 3.2106934 -1.9872437 4.984436 -2.8630066c0.9430237 -0.4715271 2.0431824 -0.9206543 3.3005066 -1.34729c1.2573547 -0.42663574 2.4922485 -1.0104675 3.7046814 -1.7514648c2.7167053 -1.369751 5.433502 -2.9415894 8.150238 -4.7155457c2.7167358 -1.7963867 5.1865234 -3.1324463 7.4093018 -4.0081787c1.2124023 -0.47155762 2.6381226 -0.8869934 4.2771606 -1.2462463c1.6390381 -0.38174438 2.986206 -0.9992676 4.041443 -1.8525391c1.7737427 -1.4371033 2.8851318 -2.717041 3.3342285 -3.8397827c0.47149658 -1.1227417 0.95422363 -1.7065735 1.4481812 -1.7514954c0.05987549 -0.0074768066 0.12036133 -0.011230469 0.18145752 -0.011230469c0.30560303 0 0.62683105 0.093566895 0.96362305 0.28070068c0.16687012 0.07910156 0.43865967 0.118621826 0.8153076 0.118621826c0.58587646 0 1.4255371 -0.09567261 2.5188599 -0.28704834c3.1882324 -1.5044556 6.567322 -2.7282715 10.137268 -3.6713562c3.5924072 -0.9655762 7.34198 -2.4251404 11.248657 -4.378723c2.986206 -1.2799072 5.725403 -2.7956238 8.21759 -4.547119c2.5147095 -1.7739258 4.962036 -3.2222595 7.34198 -4.345001c1.0327759 -0.44909668 2.2901611 -0.8645325 3.7719727 -1.2462463c1.5043335 -0.40420532 3.0198975 -0.84207153 4.546631 -1.3136292c1.5492554 -0.49398804 3.132141 -1.0441284 4.7487183 -1.6504211c1.6165771 -0.62875366 3.0647583 -1.5044861 4.3445435 -2.6272278c1.0552368 -1.0329285 2.2564697 -2.6496887 3.6036377 -4.8502502c1.3695679 -2.200592 2.2452393 -4.0419006 2.626892 -5.5238953c0.42663574 -2.5374146 -0.168396 -5.029907 -1.7849731 -7.4775085c-1.5941162 -2.4475708 -3.2106934 -4.3337708 -4.8497314 -5.6586304c-0.9654541 -0.7185364 -1.8635254 -1.1564026 -2.694275 -1.3135986c-0.8082886 -0.15719604 -1.2910156 -0.2694702 -1.4481812 -0.3368225c-0.29187012 -0.24700928 -0.7072754 -0.79714966 -1.2460938 -1.6504517c-0.5388794 -0.8532715 -1.5267944 -1.6391907 -2.963745 -2.3577576c-0.98791504 -0.38171387 -1.8972168 -0.6399536 -2.7279663 -0.7746887c-0.8307495 -0.1347351 -1.493103 -0.32559204 -1.9870605 -0.5726013c-0.44903564 -0.22454834 -0.9654541 -0.6511841 -1.5491943 -1.2799377c-0.58374023 -0.6511841 -1.347168 -1.3697205 -2.2901611 -2.1556702c-1.1450806 -0.96554565 -2.2340088 -1.5942993 -3.2668457 -1.8862c-1.010315 -0.29190063 -1.9196777 -0.6848755 -2.7279663 -1.178894c-0.987854 -0.62872314 -1.9421387 -1.2911377 -2.862671 -1.9872437c-0.8980713 -0.7185669 -1.9309082 -1.5157166 -3.0984497 -2.391449c-1.0776978 -0.69610596 -2.1217651 -1.4146423 -3.13208 -2.1556702c-1.010376 -0.7409973 -2.1329956 -1.4932556 -3.367859 -2.2567139c-0.8981323 -0.44909668 -1.7064209 -0.72976685 -2.4248657 -0.84207153c-0.6960449 -0.13470459 -1.1900024 -0.29190063 -1.4818726 -0.4715271c-1.3920898 -0.94311523 -2.7953491 -2.1107788 -4.209839 -3.5029907c-1.3920288 -1.3921814 -3.2893066 -2.4363403 -5.6917114 -3.1324463c-2.2677002 -0.673645 -4.4904785 -1.34729 -6.668335 -2.020935c-2.1779175 -0.69610596 -3.9067383 -1.5044861 -5.1865234 -2.4251404c-0.35925293 -0.22454834 -0.75219727 -0.6399536 -1.178772 -1.2462463c-0.4265747 -0.6062622 -1.1001587 -1.2799072 -2.020691 -2.020935c-1.0328369 -0.83084106 -1.9533691 -1.34729 -2.7616577 -1.5493774c-0.8082886 -0.2020874 -1.3920898 -0.4378662 -1.7513428 -0.7073364c-1.2573242 -0.94311523 -2.5819702 -2.3016357 -3.97406 -4.0755615c-1.3695679 -1.7739258 -3.850586 -2.6609192 -7.442993 -2.6609192z" fill-rule="evenodd" />
      </g>
    </svg>
