      <svg id="navLogo" class="navbar-logo" version="1.1" viewBox="0.0 0.0 956.8740157480315 524.3753280839895" fill="none" stroke="none" stroke-linecap="square" stroke-miterlimit="10" xmlns:xlink="http://www.w3.org/1999/xlink" xmlns="http://www.w3.org/2000/svg">
        <clipPath id="p.0">
          <path d="m0 0l956.874 0l0 524.3753l-956.874 0l0 -524.3753z" clip-rule="nonzero" />
        </clipPath>
        <g clip-path="url(#p.0)">
          <path fill="#000000" fill-opacity="0.0" d="m0 0l956.874 0l0 524.3753l-956.874 0z" fill-rule="evenodd" />
          <path fill="#ffffff" d="m397.4285 262.17102l0 0c0 -121.25911 36.268433 -219.552 81.00787 -219.5433l0 0c21.48462 0.004173279 42.089264 23.140228 57.28122 64.31849c15.191895 41.17827 23.726624 97.025635 23.726624 155.2563l0 0c0 121.259125 -36.268433 219.552 -81.00784 219.5433l0 0c-44.73944 -0.00869751 -81.00787 -98.315674 -81.00787 -219.5748zm20.83197 0.004058838l0 0c0 52.70569 6.3399353 103.25394 17.625122 140.52469c11.285156 37.270752 26.591125 58.210968 42.55078 58.21408l0 0c33.234222 0.0064697266 60.175873 -88.96146 60.175873 -198.71536l0 0c0 -109.75394 -26.94165 -198.73232 -60.175873 -198.73877l0 0c-33.234253 -0.006462097 -60.175903 88.96143 -60.175903 198.71536z" fill-rule="evenodd" />
          <path stroke="#ffffff" stroke-width="24.0" stroke-linejoin="round" stroke-linecap="butt" d="m397.4285 262.17102l0 0c0 -121.25911 36.268433 -219.552 81.00787 -219.5433l0 0c21.48462 0.004173279 42.089264 23.140228 57.28122 64.31849c15.191895 41.17827 23.726624 97.025635 23.726624 155.2563l0 0c0 121.259125 -36.268433 219.552 -81.00784 219.5433l0 0c-44.73944 -0.00869751 -81.00787 -98.315674 -81.00787 -219.5748zm20.83197 0.004058838l0 0c0 52.70569 6.3399353 103.25394 17.625122 140.52469c11.285156 37.270752 26.591125 58.210968 42.55078 58.21408l0 0c33.234222 0.0064697266 60.175873 -88.96146 60.175873 -198.71536l0 0c0 -109.75394 -26.94165 -198.73232 -60.175873 -198.73877l0 0c-33.234253 -0.006462097 -60.175903 88.96143 -60.175903 198.71536z" fill-rule="evenodd" />
          <path fill="#ffffff" d="m433.75998 329.75443l0 0c-101.159424 -66.8569 -163.16272 -151.30939 -138.48819 -188.62991l0 0c11.849121 -17.921951 42.51065 -22.35588 85.23941 -12.3263855c42.72876 10.0295105 94.02463 33.700882 142.60312 65.8067l0 0c101.159424 66.8569 163.16272 151.30939 138.48816 188.62991l0 0c-24.6745 37.320526 -126.683044 13.376587 -227.8425 -53.480316zm11.489166 -17.377533l0 0c43.969147 29.059479 89.63403 51.640137 126.94885 62.774475c37.31482 11.134338 63.223022 9.910309 72.025024 -3.402832l0 0c18.329224 -27.723175 -41.036865 -99.25293 -132.5979 -159.76617l0 0c-91.561005 -60.51323 -180.64462 -87.09482 -198.97385 -59.371628l0 0c-18.329224 27.723175 41.036865 99.25293 132.59787 159.76616z" fill-rule="evenodd" />
          <path stroke="#ffffff" stroke-width="24.0" stroke-linejoin="round" stroke-linecap="butt" d="m433.75998 329.75443l0 0c-101.159424 -66.8569 -163.16272 -151.30939 -138.48819 -188.62991l0 0c11.849121 -17.921951 42.51065 -22.35588 85.23941 -12.3263855c42.72876 10.0295105 94.02463 33.700882 142.60312 65.8067l0 0c101.159424 66.8569 163.16272 151.30939 138.48816 188.62991l0 0c-24.6745 37.320526 -126.683044 13.376587 -227.8425 -53.480316zm11.489166 -17.377533l0 0c43.969147 29.059479 89.63403 51.640137 126.94885 62.774475c37.31482 11.134338 63.223022 9.910309 72.025024 -3.402832l0 0c18.329224 -27.723175 -41.036865 -99.25293 -132.5979 -159.76617l0 0c-91.561005 -60.51323 -180.64462 -87.09482 -198.97385 -59.371628l0 0c-18.329224 27.723175 41.036865 99.25293 132.59787 159.76616z" fill-rule="evenodd" />
          <path fill="#ffffff" d="m433.24365 194.95854l0 0c100.62909 -67.64753 202.43427 -92.38518 227.38812 -55.253082l0 0c11.983276 17.831451 4.279236 47.837387 -21.41742 83.416855c-25.696655 35.579437 -67.28088 73.81793 -115.604675 106.30344l0 0c-100.62912 67.64752 -202.43427 92.38516 -227.38815 55.253082l0 0c-24.953888 -37.13211 36.393005 -122.072754 137.02213 -189.72029zm11.619263 17.289795l0 0c-43.73871 29.403183 -82.14984 62.864 -106.78339 93.02147c-24.633514 30.157501 -33.47159 54.54126 -24.569916 67.78717l0 0c18.536743 27.583221 107.39963 0.30792236 198.4808 -60.92102l0 0c91.08118 -61.228973 149.89008 -133.22546 131.35333 -160.80867l0 0c-18.536743 -27.583199 -107.39966 -0.30792236 -198.48083 60.92105z" fill-rule="evenodd" />
          <path stroke="#ffffff" stroke-width="24.0" stroke-linejoin="round" stroke-linecap="butt" d="m433.24365 194.95854l0 0c100.62909 -67.64753 202.43427 -92.38518 227.38812 -55.253082l0 0c11.983276 17.831451 4.279236 47.837387 -21.41742 83.416855c-25.696655 35.579437 -67.28088 73.81793 -115.604675 106.30344l0 0c-100.62912 67.64752 -202.43427 92.38516 -227.38815 55.253082l0 0c-24.953888 -37.13211 36.393005 -122.072754 137.02213 -189.72029zm11.619263 17.289795l0 0c-43.73871 29.403183 -82.14984 62.864 -106.78339 93.02147c-24.633514 30.157501 -33.47159 54.54126 -24.569916 67.78717l0 0c18.536743 27.583221 107.39963 0.30792236 198.4808 -60.92102l0 0c91.08118 -61.228973 149.89008 -133.22546 131.35333 -160.80867l0 0c-18.536743 -27.583199 -107.39966 -0.30792236 -198.48083 60.92105z" fill-rule="evenodd" />
          <path fill="#ffffff" d="m339.44507 393.02975l0 0c0 -11.765076 9.537476 -21.30252 21.302551 -21.30252l0 0c5.6497803 0 11.068146 2.2443542 15.063141 6.2393494c3.9950256 3.994995 6.23938 9.413391 6.23938 15.063171l0 0c0 11.765076 -9.537476 21.30252 -21.30252 21.30252l0 0c-11.765076 0 -21.302551 -9.537445 -21.302551 -21.30252z" fill-rule="evenodd" />
          <path stroke="#ffffff" stroke-width="24.0" stroke-linejoin="round" stroke-linecap="butt" d="m339.44507 393.02975l0 0c0 -11.765076 9.537476 -21.30252 21.302551 -21.30252l0 0c5.6497803 0 11.068146 2.2443542 15.063141 6.2393494c3.9950256 3.994995 6.23938 9.413391 6.23938 15.063171l0 0c0 11.765076 -9.537476 21.30252 -21.30252 21.30252l0 0c-11.765076 0 -21.302551 -9.537445 -21.302551 -21.30252z" fill-rule="evenodd" />
          <path fill="#ffffff" d="m412.00528 93.773865l0 0c0 -11.76506 9.537445 -21.302528 21.30252 -21.302528l0 0c5.6497803 0 11.068176 2.2443695 15.063171 6.2393646c3.994995 3.9950027 6.2393494 9.4133835 6.2393494 15.063164l0 0c0 11.765068 -9.537445 21.302536 -21.30252 21.302536l0 0c-11.765076 0 -21.30252 -9.537468 -21.30252 -21.302536z" fill-rule="evenodd" />
          <path stroke="#ffffff" stroke-width="24.0" stroke-linejoin="round" stroke-linecap="butt" d="m412.00528 93.773865l0 0c0 -11.76506 9.537445 -21.302528 21.30252 -21.302528l0 0c5.6497803 0 11.068176 2.2443695 15.063171 6.2393646c3.994995 3.9950027 6.2393494 9.4133835 6.2393494 15.063164l0 0c0 11.765068 -9.537445 21.302536 -21.30252 21.302536l0 0c-11.765076 0 -21.30252 -9.537468 -21.30252 -21.302536z" fill-rule="evenodd" />
          <path fill="#ffffff" d="m611.7151 218.41267l0 0c0 -11.76506 9.537476 -21.302536 21.30249 -21.302536l0 0c5.6497803 0 11.068176 2.2443695 15.063171 6.2393646c3.994995 3.9950104 6.23938 9.413391 6.23938 15.063171l0 0c0 11.76506 -9.537476 21.302536 -21.302551 21.302536l0 0c-11.765015 0 -21.30249 -9.537476 -21.30249 -21.302536z" fill-rule="evenodd" />
          <path stroke="#ffffff" stroke-width="24.0" stroke-linejoin="round" stroke-linecap="butt" d="m611.7151 218.41267l0 0c0 -11.76506 9.537476 -21.302536 21.30249 -21.302536l0 0c5.6497803 0 11.068176 2.2443695 15.063171 6.2393646c3.994995 3.9950104 6.23938 9.413391 6.23938 15.063171l0 0c0 11.76506 -9.537476 21.302536 -21.302551 21.302536l0 0c-11.765015 0 -21.30249 -9.537476 -21.30249 -21.302536z" fill-rule="evenodd" />
          <path fill="#ffffff" d="m469.9765 218.03207c-2.5431213 0.44306946 -4.3889465 1.0502167 -5.537445 1.8214874c-1.1321106 0.75483704 -2.3462524 1.5014801 -3.6424255 2.239914c-0.6234741 0.3117981 -1.3946228 0.5989685 -2.313446 0.86151123c-0.9187927 0.24615479 -1.8294067 0.6563873 -2.7318115 1.2307281c-2.1001282 0.9845886 -4.126404 2.1332703 -6.078888 3.446045c-1.9360657 1.3127747 -3.7080383 2.289154 -5.3159485 2.9291382c-0.8695984 0.34458923 -1.9278564 0.6563873 -3.1748047 0.9353485c-1.2469788 0.26255798 -2.2806091 0.72203064 -3.1009827 1.378418c-1.164917 1.0338135 -1.9360657 1.9609528 -2.3134155 2.7814484c-0.3609619 0.80407715 -0.75476074 1.2225189 -1.1813354 1.2553406c-0.03579712 0.0059661865 -0.0743103 0.00894165 -0.11553955 0.00894165c-0.18548584 0 -0.42590332 -0.060409546 -0.7212219 -0.1812439c-0.15042114 -0.068374634 -0.36917114 -0.10256958 -0.65631104 -0.10256958c-0.40197754 0 -0.93795776 0.06700134 -1.6079102 0.20101929c-2.4118652 1.11586 -4.92218 2.0430145 -7.530945 2.7814484c-2.6087646 0.73843384 -5.348755 1.7722473 -8.220032 3.1014404c-2.0837402 0.9353485 -4.0854187 2.067627 -6.005066 3.3968048c-1.9196472 1.3291931 -3.6998596 2.3547974 -5.340576 3.076828c-0.7711487 0.3446045 -1.6817627 0.6645813 -2.7318115 0.95996094c-1.0336609 0.27896118 -2.149353 0.59895325 -3.3470764 0.9599762c-1.1813354 0.3610077 -2.3380432 0.7958679 -3.4701538 1.3045654c-1.1321106 0.5086975 -2.1247559 1.1322784 -2.9779358 1.8707123c-0.77111816 0.6399689 -1.673523 1.7886658 -2.7071838 3.446045c-1.0172424 1.6409607 -1.657135 3.0603943 -1.9196472 4.258301c-0.18048096 1.0338135 -0.106658936 2.018402 0.22149658 2.9537659c0.34454346 0.93533325 0.7219238 1.7968445 1.1321106 2.5845337c0.4265747 0.77124023 0.98443604 1.5343018 1.673523 2.289154c0.68911743 0.73843384 1.3371887 1.2963562 1.9442749 1.6737671c0.6234741 0.45947266 1.2141418 0.74664307 1.7719727 0.86151123c0.5024719 0.1005249 0.7725525 0.15078735 0.8102417 0.15078735c0.0024108887 0 0.0038757324 -2.1362305E-4 0.0043945312 -6.4086914E-4l0 0c0.22973633 0.23049927 0.58169556 0.6809387 1.0557861 1.3513489c0.49224854 0.6564026 1.2305603 1.1979065 2.2149963 1.6245728c0.672699 0.39382935 1.3289795 0.63998413 1.9688721 0.73843384c0.6398926 0.09844971 1.0993042 0.22973633 1.3782043 0.39382935c0.44299316 0.22973633 0.9024048 0.55792236 1.3782349 0.9845886c0.47579956 0.42663574 1.0500488 0.92715454 1.7227478 1.5014954c0.8367615 0.5415039 1.5915222 0.93533325 2.2642212 1.181488c0.672699 0.24615479 1.2879639 0.5661316 1.8457947 0.95996094c0.7383423 0.45947266 1.476654 0.9845886 2.2149963 1.5753479c0.73831177 0.59072876 1.5422974 1.1568604 2.4118652 1.6983948c0.7219238 0.45947266 1.4274292 0.95996094 2.1165466 1.5014954c0.68911743 0.5415039 1.5176697 1.1158447 2.4856873 1.7230225c0.7711487 0.29534912 1.3372192 0.48406982 1.6981812 0.5661316c0.37734985 0.08203125 0.7055054 0.22973633 0.98443604 0.4430542c1.1977234 0.73843384 2.2724 1.5917358 3.2240295 2.559906c0.9680176 0.9517822 2.2887878 1.6820068 3.9623413 2.1907043c1.7720032 0.49227905 3.4537354 0.99279785 5.0452576 1.5014954c1.6079102 0.49227905 2.9286804 1.0830383 3.9623413 1.7722473c0.18048096 0.114868164 0.40197754 0.39382935 0.66448975 0.83688354c0.27893066 0.44308472 0.7711487 0.9517822 1.476654 1.526123c0.7711487 0.6235657 1.4520569 1.0009766 2.0427246 1.1322632c0.60705566 0.13128662 1.0336609 0.32818604 1.2797546 0.5907593c0.98443604 0.7055969 1.9278564 1.6901855 2.8302612 2.9537354c0.9024048 1.2635498 2.7974548 1.8953247 5.6851196 1.8953247c2.2478027 -1.6081543 3.675232 -3.6019287 4.2822876 -5.9813538c0.6070862 -2.3793945 1.3536072 -4.955719 2.239624 -7.7289734c-1.4766846 -2.6255493 -3.2732544 -4.3977966 -5.389801 -5.316742c-2.1001282 -0.9189453 -4.0526123 -1.9445496 -5.8573914 -3.0768127c-1.9360657 -1.1158752 -3.8065186 -2.4942932 -5.6112976 -4.135254c-1.7883911 -1.6573792 -3.9377441 -2.8224792 -6.448059 -3.4952698c-1.3014832 -0.4058838 -2.531372 -0.6088562 -3.6896057 -0.6088562c-0.19970703 0 -0.39727783 0.0060424805 -0.5927124 0.018096924c-0.3645935 0.02279663 -0.68362427 0.034210205 -0.9570923 0.034210205c-0.710968 0 -1.1138611 -0.077056885 -1.2086487 -0.23110962c-0.09844971 -0.114868164 -0.08206177 -0.6646118 0.049224854 -1.6491699c0.14764404 -0.9845886 -0.29534912 -2.2481384 -1.32901 -3.7906494c-2.3790588 -0.7548523 -4.421753 -1.4112549 -6.128113 -1.9691772c-1.6876221 -0.57354736 -3.2279968 -1.253479 -4.6211243 -2.0397644l0 0c0.0028686523 -0.011169434 -0.10568237 -0.19274902 -0.3256836 -0.5447693c-0.24609375 -0.39382935 -0.69729614 -0.81225586 -1.3535767 -1.2553406c-0.85317993 -0.42663574 -1.6735535 -0.7220154 -2.46109 -0.8861084c-0.15264893 -0.034973145 -0.30096436 -0.068725586 -0.4449768 -0.101257324l0 0c0.09631348 -0.007598877 0.19543457 -0.014862061 0.29730225 -0.021820068c0.73831177 -0.06564331 1.5751038 -0.29537964 2.510315 -0.689209c1.6899414 -0.73843384 3.4127197 -1.6573792 5.168274 -2.756836c1.7555847 -1.0994568 3.4701538 -2.1168518 5.1437073 -3.0522156c1.8211975 -0.8204651 3.7408447 -1.5424957 5.7589417 -2.1660614c2.018097 -0.62358093 4.0279846 -1.2307281 6.0296936 -1.8214874c2.0016785 -0.6071625 3.9705505 -1.3045654 5.906616 -2.0922394c1.9360352 -0.7876587 3.7408447 -1.7558289 5.414398 -2.9045105c1.0172424 -0.6235657 1.8294067 -1.1650848 2.4364624 -1.6245728c0.33218384 -0.26037598 0.7822571 -0.39057922 1.3502197 -0.39057922c0.47003174 0 1.020813 0.08917236 1.6523132 0.2675171c1.5258789 -1.2307281 2.854889 -2.174286 3.986969 -2.8306732c1.148529 -0.6564026 2.4447021 -1.4276428 3.8885498 -2.3137817c1.0992737 -0.57432556 2.5021057 -1.0994415 4.2084656 -1.5753326c1.7227478 -0.49227905 3.076355 -1.2963562 4.060791 -2.4122162c1.164917 -0.86972046 1.89505 -2.1496735 2.1903687 -3.8398743c0.29534912 -1.706604 0.6234741 -3.191681 0.98443604 -4.455246c0.5086365 -1.5096893 0.9762268 -3.2409058 1.402832 -5.1936646c0.4265747 -1.9527588 -0.66448975 -3.6347504 -3.2732544 -5.04599z" fill-rule="evenodd" />
          <path stroke="#ffffff" stroke-width="24.0" stroke-linejoin="round" stroke-linecap="butt" d="m469.9765 218.03207c-2.5431213 0.44306946 -4.3889465 1.0502167 -5.537445 1.8214874c-1.1321106 0.75483704 -2.3462524 1.5014801 -3.6424255 2.239914c-0.6234741 0.3117981 -1.3946228 0.5989685 -2.313446 0.86151123c-0.9187927 0.24615479 -1.8294067 0.6563873 -2.7318115 1.2307281c-2.1001282 0.9845886 -4.126404 2.1332703 -6.078888 3.446045c-1.9360657 1.3127747 -3.7080383 2.289154 -5.3159485 2.9291382c-0.8695984 0.34458923 -1.9278564 0.6563873 -3.1748047 0.9353485c-1.2469788 0.26255798 -2.2806091 0.72203064 -3.1009827 1.378418c-1.164917 1.0338135 -1.9360657 1.9609528 -2.3134155 2.7814484c-0.3609619 0.80407715 -0.75476074 1.2225189 -1.1813354 1.2553406c-0.03579712 0.0059661865 -0.0743103 0.00894165 -0.11553955 0.00894165c-0.18548584 0 -0.42590332 -0.060409546 -0.7212219 -0.1812439c-0.15042114 -0.068374634 -0.36917114 -0.10256958 -0.65631104 -0.10256958c-0.40197754 0 -0.93795776 0.06700134 -1.6079102 0.20101929c-2.4118652 1.11586 -4.92218 2.0430145 -7.530945 2.7814484c-2.6087646 0.73843384 -5.348755 1.7722473 -8.220032 3.1014404c-2.0837402 0.9353485 -4.0854187 2.067627 -6.005066 3.3968048c-1.9196472 1.3291931 -3.6998596 2.3547974 -5.340576 3.076828c-0.7711487 0.3446045 -1.6817627 0.6645813 -2.7318115 0.95996094c-1.0336609 0.27896118 -2.149353 0.59895325 -3.3470764 0.9599762c-1.1813354 0.3610077 -2.3380432 0.7958679 -3.4701538 1.3045654c-1.1321106 0.5086975 -2.1247559 1.1322784 -2.9779358 1.8707123c-0.77111816 0.6399689 -1.673523 1.7886658 -2.7071838 3.446045c-1.0172424 1.6409607 -1.657135 3.0603943 -1.9196472 4.258301c-0.18048096 1.0338135 -0.106658936 2.018402 0.22149658 2.9537659c0.34454346 0.93533325 0.7219238 1.7968445 1.1321106 2.5845337c0.4265747 0.77124023 0.98443604 1.5343018 1.673523 2.289154c0.68911743 0.73843384 1.3371887 1.2963562 1.9442749 1.6737671c0.6234741 0.45947266 1.2141418 0.74664307 1.7719727 0.86151123c0.5024719 0.1005249 0.7725525 0.15078735 0.8102417 0.15078735c0.0024108887 0 0.0038757324 -2.1362305E-4 0.0043945312 -6.4086914E-4l0 0c0.22973633 0.23049927 0.58169556 0.6809387 1.0557861 1.3513489c0.49224854 0.6564026 1.2305603 1.1979065 2.2149963 1.6245728c0.672699 0.39382935 1.3289795 0.63998413 1.9688721 0.73843384c0.6398926 0.09844971 1.0993042 0.22973633 1.3782043 0.39382935c0.44299316 0.22973633 0.9024048 0.55792236 1.3782349 0.9845886c0.47579956 0.42663574 1.0500488 0.92715454 1.7227478 1.5014954c0.8367615 0.5415039 1.5915222 0.93533325 2.2642212 1.181488c0.672699 0.24615479 1.2879639 0.5661316 1.8457947 0.95996094c0.7383423 0.45947266 1.476654 0.9845886 2.2149963 1.5753479c0.73831177 0.59072876 1.5422974 1.1568604 2.4118652 1.6983948c0.7219238 0.45947266 1.4274292 0.95996094 2.1165466 1.5014954c0.68911743 0.5415039 1.5176697 1.1158447 2.4856873 1.7230225c0.7711487 0.29534912 1.3372192 0.48406982 1.6981812 0.5661316c0.37734985 0.08203125 0.7055054 0.22973633 0.98443604 0.4430542c1.1977234 0.73843384 2.2724 1.5917358 3.2240295 2.559906c0.9680176 0.9517822 2.2887878 1.6820068 3.9623413 2.1907043c1.7720032 0.49227905 3.4537354 0.99279785 5.0452576 1.5014954c1.6079102 0.49227905 2.9286804 1.0830383 3.9623413 1.7722473c0.18048096 0.114868164 0.40197754 0.39382935 0.66448975 0.83688354c0.27893066 0.44308472 0.7711487 0.9517822 1.476654 1.526123c0.7711487 0.6235657 1.4520569 1.0009766 2.0427246 1.1322632c0.60705566 0.13128662 1.0336609 0.32818604 1.2797546 0.5907593c0.98443604 0.7055969 1.9278564 1.6901855 2.8302612 2.9537354c0.9024048 1.2635498 2.7974548 1.8953247 5.6851196 1.8953247c2.2478027 -1.6081543 3.675232 -3.6019287 4.2822876 -5.9813538c0.6070862 -2.3793945 1.3536072 -4.955719 2.239624 -7.7289734c-1.4766846 -2.6255493 -3.2732544 -4.3977966 -5.389801 -5.316742c-2.1001282 -0.9189453 -4.0526123 -1.9445496 -5.8573914 -3.0768127c-1.9360657 -1.1158752 -3.8065186 -2.4942932 -5.6112976 -4.135254c-1.7883911 -1.6573792 -3.9377441 -2.8224792 -6.448059 -3.4952698c-1.3014832 -0.4058838 -2.531372 -0.6088562 -3.6896057 -0.6088562c-0.19970703 0 -0.39727783 0.0060424805 -0.5927124 0.018096924c-0.3645935 0.02279663 -0.68362427 0.034210205 -0.9570923 0.034210205c-0.710968 0 -1.1138611 -0.077056885 -1.2086487 -0.23110962c-0.09844971 -0.114868164 -0.08206177 -0.6646118 0.049224854 -1.6491699c0.14764404 -0.9845886 -0.29534912 -2.2481384 -1.32901 -3.7906494c-2.3790588 -0.7548523 -4.421753 -1.4112549 -6.128113 -1.9691772c-1.6876221 -0.57354736 -3.2279968 -1.253479 -4.6211243 -2.0397644l0 0c0.0028686523 -0.011169434 -0.10568237 -0.19274902 -0.3256836 -0.5447693c-0.24609375 -0.39382935 -0.69729614 -0.81225586 -1.3535767 -1.2553406c-0.85317993 -0.42663574 -1.6735535 -0.7220154 -2.46109 -0.8861084c-0.15264893 -0.034973145 -0.30096436 -0.068725586 -0.4449768 -0.101257324l0 0c0.09631348 -0.007598877 0.19543457 -0.014862061 0.29730225 -0.021820068c0.73831177 -0.06564331 1.5751038 -0.29537964 2.510315 -0.689209c1.6899414 -0.73843384 3.4127197 -1.6573792 5.168274 -2.756836c1.7555847 -1.0994568 3.4701538 -2.1168518 5.1437073 -3.0522156c1.8211975 -0.8204651 3.7408447 -1.5424957 5.7589417 -2.1660614c2.018097 -0.62358093 4.0279846 -1.2307281 6.0296936 -1.8214874c2.0016785 -0.6071625 3.9705505 -1.3045654 5.906616 -2.0922394c1.9360352 -0.7876587 3.7408447 -1.7558289 5.414398 -2.9045105c1.0172424 -0.6235657 1.8294067 -1.1650848 2.4364624 -1.6245728c0.33218384 -0.26037598 0.7822571 -0.39057922 1.3502197 -0.39057922c0.47003174 0 1.020813 0.08917236 1.6523132 0.2675171c1.5258789 -1.2307281 2.854889 -2.174286 3.986969 -2.8306732c1.148529 -0.6564026 2.4447021 -1.4276428 3.8885498 -2.3137817c1.0992737 -0.57432556 2.5021057 -1.0994415 4.2084656 -1.5753326c1.7227478 -0.49227905 3.076355 -1.2963562 4.060791 -2.4122162c1.164917 -0.86972046 1.89505 -2.1496735 2.1903687 -3.8398743c0.29534912 -1.706604 0.6234741 -3.191681 0.98443604 -4.455246c0.5086365 -1.5096893 0.9762268 -3.2409058 1.402832 -5.1936646c0.4265747 -1.9527588 -0.66448975 -3.6347504 -3.2732544 -5.04599z" fill-rule="evenodd" />
          <path fill="#ffffff" d="m506.17548 218.03207c-2.3790283 1.5917358 -3.8721008 3.5855255 -4.479187 5.9813385c-0.60705566 2.3794098 -1.3535767 4.9557343 -2.2395935 7.7289734c1.476654 2.609146 3.2732544 4.406006 5.389801 5.3905945c2.1329346 0.9845886 4.142853 1.9937744 6.0296936 3.027588c1.8211975 1.0994568 3.658783 2.4778748 5.512848 4.135254c1.8540039 1.640976 4.027954 2.7978516 6.5218506 3.4706573c1.3015137 0.40589905 2.5253906 0.60884094 3.671692 0.60884094c0.19769287 0 0.39300537 -0.0060272217 0.58599854 -0.018096924c0.44299316 -0.02734375 0.81762695 -0.041030884 1.1239014 -0.041030884c0.6125488 0 0.95166016 0.05470276 1.017273 0.16410828c0.13128662 0.18049622 0.123046875 0.75483704 -0.024597168 1.7230072c-0.13128662 0.96817017 0.3199463 2.23172 1.3535767 3.7906494c2.3790894 0.7548523 4.4053955 1.4112396 6.0789185 1.969162c1.6899414 0.5579376 3.2322388 1.279953 4.626831 2.166092c0.032836914 0.016418457 0.17230225 0.19689941 0.418396 0.5415039c0.24609375 0.3446045 0.65631104 0.70562744 1.2305298 1.0830383c0.7383423 0.45947266 1.5012817 0.77127075 2.2888184 0.93536377c0.19665527 0.040985107 0.38562012 0.0819397 0.56689453 0.122924805l0 0c-0.095825195 0.008392334 -0.19451904 0.01663208 -0.29614258 0.024780273c-0.8039551 0.049224854 -1.6161499 0.27896118 -2.4365234 0.68917847c-1.7719727 0.7220459 -3.5029297 1.6573792 -5.192871 2.8060608c-1.673523 1.1322937 -3.4291382 2.108673 -5.2667236 2.9291382c-1.9032593 0.853302 -3.822937 1.5999451 -5.758972 2.2399292c-1.9196777 0.6235657 -3.8721313 1.2553406 -5.857422 1.8953247c-1.9852905 0.63998413 -3.9459229 1.3291931 -5.882019 2.067627c-1.9196167 0.7220459 -3.7080078 1.6573792 -5.365143 2.8060608c-1.164917 0.63998413 -2.0427246 1.214325 -2.6333923 1.7230225c-0.33587646 0.2975464 -0.79525757 0.44628906 -1.3781128 0.44628906c-0.41363525 0 -0.88949585 -0.074920654 -1.4275208 -0.22476196c-1.6243286 1.181488 -2.9861145 2.084015 -4.0854187 2.707611c-1.0828857 0.6071472 -2.4364624 1.3702087 -4.060791 2.289154c-1.0008545 0.6727905 -2.3544617 1.214325 -4.060791 1.6245422c-1.7063599 0.4102478 -3.092804 1.1486816 -4.1592712 2.215332c-1.1813049 1.0338135 -1.8868103 2.3876038 -2.116516 4.0614014c-0.22970581 1.6573792 -0.52505493 3.1096497 -0.88601685 4.356781c-0.50860596 1.6245422 -0.9762268 3.3804016 -1.4028015 5.267517c-0.44299316 1.8871155 0.6480713 3.5444946 3.2732544 4.9721375c2.5431213 -0.4430542 4.372528 -1.0420227 5.48822 -1.796875c1.1321106 -0.7548218 2.3462524 -1.45224 3.6424255 -2.0922241c0.6890869 -0.3446045 1.493042 -0.67282104 2.4118652 -0.9845886c0.91882324 -0.31176758 1.8211975 -0.73843384 2.7072144 -1.2799683c1.98526 -1.0009766 3.9705505 -2.1496582 5.955841 -3.446045c1.98526 -1.3127747 3.7900696 -2.289154 5.414398 -2.9291077c0.8859863 -0.3446045 1.9278564 -0.64819336 3.1256104 -0.9107361c1.1976929 -0.2789917 2.182129 -0.7302551 2.953308 -1.3538208c1.2961426 -1.0502014 2.1083374 -1.9855652 2.4364624 -2.8060608c0.34454346 -0.8204956 0.69732666 -1.2471313 1.0582886 -1.2799377c0.043701172 -0.005493164 0.08795166 -0.0082092285 0.13256836 -0.0082092285c0.22332764 0 0.45806885 0.068359375 0.7041626 0.20510864c0.12200928 0.057800293 0.32061768 0.08670044 0.5958252 0.08670044c0.42816162 0 1.041687 -0.06991577 1.8406982 -0.20977783c2.329834 -1.0994263 4.7990723 -1.9937744 7.407837 -2.6829834c2.625183 -0.7055969 5.3651733 -1.7722473 8.220093 -3.1998901c2.182129 -0.93536377 4.183838 -2.0429993 6.005066 -3.3229675c1.8375854 -1.2963562 3.6259766 -2.3547974 5.3651733 -3.175293c0.7546997 -0.32818604 1.673523 -0.6317749 2.7564087 -0.9107361c1.0993042 -0.29534912 2.206787 -0.61535645 3.3224487 -0.95996094c1.1321411 -0.36102295 2.2888184 -0.7630615 3.4701538 -1.2061157c1.1813354 -0.45947266 2.239624 -1.0994568 3.1748047 -1.9199219c0.7711792 -0.7548523 1.6489258 -1.9363403 2.6333618 -3.5444946c1.0008545 -1.6081543 1.6407471 -2.9537659 1.9196777 -4.036804c0.31170654 -1.8542786 -0.123046875 -3.6757812 -1.3043823 -5.4644165c-1.164917 -1.7886658 -2.3462524 -3.1670837 -3.5439453 -4.135254c-0.7055664 -0.52511597 -1.3618164 -0.84510803 -1.9688721 -0.9599762c-0.59069824 -0.114868164 -0.9434204 -0.19691467 -1.0582886 -0.24613953c-0.21331787 -0.18051147 -0.5168457 -0.58255005 -0.91064453 -1.2061157c-0.3937378 -0.6235657 -1.1156616 -1.1979065 -2.1657104 -1.7230225c-0.7219238 -0.27896118 -1.3864136 -0.46768188 -1.9935303 -0.5661316c-0.60705566 -0.098464966 -1.0910645 -0.23794556 -1.4520264 -0.41845703c-0.328125 -0.16409302 -0.7055054 -0.47587585 -1.1320801 -0.9353485c-0.4265747 -0.47587585 -0.98443604 -1.0009918 -1.673584 -1.5753326c-0.83673096 -0.7056122 -1.6325073 -1.1650848 -2.387207 -1.378418c-0.7383423 -0.21331787 -1.402832 -0.5004883 -1.9935303 -0.86151123c-0.7219238 -0.45947266 -1.4191895 -0.94355774 -2.091919 -1.4522552c-0.65631104 -0.5251007 -1.4110107 -1.1076508 -2.2642212 -1.7476349c-0.7875366 -0.5086975 -1.5504761 -1.0338135 -2.2888184 -1.5753326c-0.73828125 -0.54151917 -1.5586548 -1.0912476 -2.4610596 -1.6491699c-0.65631104 -0.3282013 -1.2469482 -0.53330994 -1.7719727 -0.6153717c-0.508667 -0.09844971 -0.8696289 -0.21331787 -1.0828857 -0.3446045c-1.017273 -0.689209 -2.0427246 -1.542511 -3.076355 -2.559906c-1.017273 -1.0174103 -2.4036865 -1.7804565 -4.1592407 -2.289154c-1.6571655 -0.4922943 -3.2814941 -0.9845886 -4.872986 -1.4768829c-1.5914917 -0.5086975 -2.8548584 -1.0994415 -3.7901 -1.7722473c-0.2625122 -0.16409302 -0.5496216 -0.46766663 -0.86138916 -0.9107361c-0.31170654 -0.44306946 -0.8039551 -0.9353485 -1.4766235 -1.4768677c-0.75476074 -0.6071625 -1.4274292 -0.9845886 -2.0181274 -1.1322784c-0.5906372 -0.14768982 -1.0172119 -0.31999207 -1.2797241 -0.51690674c-0.91882324 -0.689209 -1.8868408 -1.6819916 -2.9041138 -2.978363c-1.0008545 -1.2963562 -2.8138428 -1.9445496 -5.439026 -1.9445496z" fill-rule="evenodd" />
          <path stroke="#ffffff" stroke-width="24.0" stroke-linejoin="round" stroke-linecap="butt" d="m506.17548 218.03207c-2.3790283 1.5917358 -3.8721008 3.5855255 -4.479187 5.9813385c-0.60705566 2.3794098 -1.3535767 4.9557343 -2.2395935 7.7289734c1.476654 2.609146 3.2732544 4.406006 5.389801 5.3905945c2.1329346 0.9845886 4.142853 1.9937744 6.0296936 3.027588c1.8211975 1.0994568 3.658783 2.4778748 5.512848 4.135254c1.8540039 1.640976 4.027954 2.7978516 6.5218506 3.4706573c1.3015137 0.40589905 2.5253906 0.60884094 3.671692 0.60884094c0.19769287 0 0.39300537 -0.0060272217 0.58599854 -0.018096924c0.44299316 -0.02734375 0.81762695 -0.041030884 1.1239014 -0.041030884c0.6125488 0 0.95166016 0.05470276 1.017273 0.16410828c0.13128662 0.18049622 0.123046875 0.75483704 -0.024597168 1.7230072c-0.13128662 0.96817017 0.3199463 2.23172 1.3535767 3.7906494c2.3790894 0.7548523 4.4053955 1.4112396 6.0789185 1.969162c1.6899414 0.5579376 3.2322388 1.279953 4.626831 2.166092c0.032836914 0.016418457 0.17230225 0.19689941 0.418396 0.5415039c0.24609375 0.3446045 0.65631104 0.70562744 1.2305298 1.0830383c0.7383423 0.45947266 1.5012817 0.77127075 2.2888184 0.93536377c0.19665527 0.040985107 0.38562012 0.0819397 0.56689453 0.122924805l0 0c-0.095825195 0.008392334 -0.19451904 0.01663208 -0.29614258 0.024780273c-0.8039551 0.049224854 -1.6161499 0.27896118 -2.4365234 0.68917847c-1.7719727 0.7220459 -3.5029297 1.6573792 -5.192871 2.8060608c-1.673523 1.1322937 -3.4291382 2.108673 -5.2667236 2.9291382c-1.9032593 0.853302 -3.822937 1.5999451 -5.758972 2.2399292c-1.9196777 0.6235657 -3.8721313 1.2553406 -5.857422 1.8953247c-1.9852905 0.63998413 -3.9459229 1.3291931 -5.882019 2.067627c-1.9196167 0.7220459 -3.7080078 1.6573792 -5.365143 2.8060608c-1.164917 0.63998413 -2.0427246 1.214325 -2.6333923 1.7230225c-0.33587646 0.2975464 -0.79525757 0.44628906 -1.3781128 0.44628906c-0.41363525 0 -0.88949585 -0.074920654 -1.4275208 -0.22476196c-1.6243286 1.181488 -2.9861145 2.084015 -4.0854187 2.707611c-1.0828857 0.6071472 -2.4364624 1.3702087 -4.060791 2.289154c-1.0008545 0.6727905 -2.3544617 1.214325 -4.060791 1.6245422c-1.7063599 0.4102478 -3.092804 1.1486816 -4.1592712 2.215332c-1.1813049 1.0338135 -1.8868103 2.3876038 -2.116516 4.0614014c-0.22970581 1.6573792 -0.52505493 3.1096497 -0.88601685 4.356781c-0.50860596 1.6245422 -0.9762268 3.3804016 -1.4028015 5.267517c-0.44299316 1.8871155 0.6480713 3.5444946 3.2732544 4.9721375c2.5431213 -0.4430542 4.372528 -1.0420227 5.48822 -1.796875c1.1321106 -0.7548218 2.3462524 -1.45224 3.6424255 -2.0922241c0.6890869 -0.3446045 1.493042 -0.67282104 2.4118652 -0.9845886c0.91882324 -0.31176758 1.8211975 -0.73843384 2.7072144 -1.2799683c1.98526 -1.0009766 3.9705505 -2.1496582 5.955841 -3.446045c1.98526 -1.3127747 3.7900696 -2.289154 5.414398 -2.9291077c0.8859863 -0.3446045 1.9278564 -0.64819336 3.1256104 -0.9107361c1.1976929 -0.2789917 2.182129 -0.7302551 2.953308 -1.3538208c1.2961426 -1.0502014 2.1083374 -1.9855652 2.4364624 -2.8060608c0.34454346 -0.8204956 0.69732666 -1.2471313 1.0582886 -1.2799377c0.043701172 -0.005493164 0.08795166 -0.0082092285 0.13256836 -0.0082092285c0.22332764 0 0.45806885 0.068359375 0.7041626 0.20510864c0.12200928 0.057800293 0.32061768 0.08670044 0.5958252 0.08670044c0.42816162 0 1.041687 -0.06991577 1.8406982 -0.20977783c2.329834 -1.0994263 4.7990723 -1.9937744 7.407837 -2.6829834c2.625183 -0.7055969 5.3651733 -1.7722473 8.220093 -3.1998901c2.182129 -0.93536377 4.183838 -2.0429993 6.005066 -3.3229675c1.8375854 -1.2963562 3.6259766 -2.3547974 5.3651733 -3.175293c0.7546997 -0.32818604 1.673523 -0.6317749 2.7564087 -0.9107361c1.0993042 -0.29534912 2.206787 -0.61535645 3.3224487 -0.95996094c1.1321411 -0.36102295 2.2888184 -0.7630615 3.4701538 -1.2061157c1.1813354 -0.45947266 2.239624 -1.0994568 3.1748047 -1.9199219c0.7711792 -0.7548523 1.6489258 -1.9363403 2.6333618 -3.5444946c1.0008545 -1.6081543 1.6407471 -2.9537659 1.9196777 -4.036804c0.31170654 -1.8542786 -0.123046875 -3.6757812 -1.3043823 -5.4644165c-1.164917 -1.7886658 -2.3462524 -3.1670837 -3.5439453 -4.135254c-0.7055664 -0.52511597 -1.3618164 -0.84510803 -1.9688721 -0.9599762c-0.59069824 -0.114868164 -0.9434204 -0.19691467 -1.0582886 -0.24613953c-0.21331787 -0.18051147 -0.5168457 -0.58255005 -0.91064453 -1.2061157c-0.3937378 -0.6235657 -1.1156616 -1.1979065 -2.1657104 -1.7230225c-0.7219238 -0.27896118 -1.3864136 -0.46768188 -1.9935303 -0.5661316c-0.60705566 -0.098464966 -1.0910645 -0.23794556 -1.4520264 -0.41845703c-0.328125 -0.16409302 -0.7055054 -0.47587585 -1.1320801 -0.9353485c-0.4265747 -0.47587585 -0.98443604 -1.0009918 -1.673584 -1.5753326c-0.83673096 -0.7056122 -1.6325073 -1.1650848 -2.387207 -1.378418c-0.7383423 -0.21331787 -1.402832 -0.5004883 -1.9935303 -0.86151123c-0.7219238 -0.45947266 -1.4191895 -0.94355774 -2.091919 -1.4522552c-0.65631104 -0.5251007 -1.4110107 -1.1076508 -2.2642212 -1.7476349c-0.7875366 -0.5086975 -1.5504761 -1.0338135 -2.2888184 -1.5753326c-0.73828125 -0.54151917 -1.5586548 -1.0912476 -2.4610596 -1.6491699c-0.65631104 -0.3282013 -1.2469482 -0.53330994 -1.7719727 -0.6153717c-0.508667 -0.09844971 -0.8696289 -0.21331787 -1.0828857 -0.3446045c-1.017273 -0.689209 -2.0427246 -1.542511 -3.076355 -2.559906c-1.017273 -1.0174103 -2.4036865 -1.7804565 -4.1592407 -2.289154c-1.6571655 -0.4922943 -3.2814941 -0.9845886 -4.872986 -1.4768829c-1.5914917 -0.5086975 -2.8548584 -1.0994415 -3.7901 -1.7722473c-0.2625122 -0.16409302 -0.5496216 -0.46766663 -0.86138916 -0.9107361c-0.31170654 -0.44306946 -0.8039551 -0.9353485 -1.4766235 -1.4768677c-0.75476074 -0.6071625 -1.4274292 -0.9845886 -2.0181274 -1.1322784c-0.5906372 -0.14768982 -1.0172119 -0.31999207 -1.2797241 -0.51690674c-0.91882324 -0.689209 -1.8868408 -1.6819916 -2.9041138 -2.978363c-1.0008545 -1.2963562 -2.8138428 -1.9445496 -5.439026 -1.9445496z" fill-rule="evenodd" />
          <path fill="#ffffff" d="m469.9765 218.631c-2.5431213 0.44306946 -4.3889465 1.0502319 -5.537445 1.8214874c-1.1321106 0.75483704 -2.3462524 1.5014801 -3.6424255 2.239914c-0.6234741 0.3117981 -1.3946228 0.5989685 -2.313446 0.86151123c-0.9187927 0.24615479 -1.8294067 0.6564026 -2.7318115 1.2307281c-2.1001282 0.9845886 -4.126404 2.1332703 -6.078888 3.446045c-1.9360657 1.3127747 -3.7080383 2.289154 -5.3159485 2.9291382c-0.8695984 0.3446045 -1.9278564 0.6563873 -3.1748047 0.9353485c-1.2469788 0.26255798 -2.2806091 0.72203064 -3.1009827 1.378418c-1.164917 1.0338135 -1.9360657 1.9609528 -2.3134155 2.7814484c-0.3609619 0.80407715 -0.75476074 1.2225189 -1.1813354 1.2553406c-0.03579712 0.0059661865 -0.0743103 0.00894165 -0.11553955 0.00894165c-0.18548584 0 -0.42590332 -0.060409546 -0.7212219 -0.1812439c-0.15042114 -0.068374634 -0.36917114 -0.10256958 -0.65631104 -0.10256958c-0.40197754 0 -0.93795776 0.0670166 -1.6079102 0.20101929c-2.4118652 1.11586 -4.92218 2.0430145 -7.530945 2.7814484c-2.6087646 0.73843384 -5.348755 1.7722473 -8.220032 3.1014404c-2.0837402 0.9353485 -4.0854187 2.067627 -6.005066 3.3968048c-1.9196472 1.3291931 -3.6998596 2.3547974 -5.340576 3.076828c-0.7711487 0.3446045 -1.6817627 0.66459656 -2.7318115 0.95996094c-1.0336609 0.27896118 -2.149353 0.59895325 -3.3470764 0.9599762c-1.1813354 0.3610077 -2.3380432 0.7958679 -3.4701538 1.3045654c-1.1321106 0.50871277 -2.1247559 1.1322784 -2.9779358 1.8707123c-0.77111816 0.63998413 -1.673523 1.7886505 -2.7071838 3.4460297c-1.0172424 1.6409912 -1.657135 3.0604248 -1.9196472 4.2583313c-0.18048096 1.0338135 -0.106658936 2.018402 0.22149658 2.9537354c0.34454346 0.93536377 0.7219238 1.796875 1.1321106 2.5845337c0.4265747 0.77127075 0.98443604 1.5343018 1.673523 2.289154c0.68911743 0.73843384 1.3371887 1.2963867 1.9442749 1.6737976c0.6234741 0.45947266 1.2141418 0.74664307 1.7719727 0.86151123c0.5024719 0.100494385 0.7725525 0.15075684 0.8102417 0.15075684c0.0024108887 0 0.0038757324 -2.1362305E-4 0.0043945312 -6.1035156E-4l0 0c0.22973633 0.23049927 0.58169556 0.6809387 1.0557861 1.3513489c0.49224854 0.6563721 1.2305603 1.1979065 2.2149963 1.6245422c0.672699 0.39382935 1.3289795 0.63998413 1.9688721 0.73843384c0.6398926 0.098480225 1.0993042 0.22976685 1.3782043 0.39385986c0.44299316 0.22973633 0.9024048 0.55792236 1.3782349 0.9845581c0.47579956 0.42666626 1.0500488 0.92715454 1.7227478 1.5014954c0.8367615 0.5415344 1.5915222 0.93536377 2.2642212 1.181488c0.672699 0.24615479 1.2879639 0.5661621 1.8457947 0.95999146c0.7383423 0.45947266 1.476654 0.9845886 2.2149963 1.5753174c0.73831177 0.5907593 1.5422974 1.1568909 2.4118652 1.6984253c0.7219238 0.45944214 1.4274292 0.95996094 2.1165466 1.5014648c0.68911743 0.5415344 1.5176697 1.1158752 2.4856873 1.7230225c0.7711487 0.29537964 1.3372192 0.48410034 1.6981812 0.5661316c0.37734985 0.08206177 0.7055054 0.22973633 0.98443604 0.44308472c1.1977234 0.73843384 2.2724 1.5917358 3.2240295 2.559906c0.9680176 0.9517517 2.2887878 1.6819763 3.9623413 2.1907043c1.7720032 0.49227905 3.4537354 0.99276733 5.0452576 1.5014648c1.6079102 0.49230957 2.9286804 1.0830383 3.9623413 1.7722473c0.18048096 0.114868164 0.40197754 0.39385986 0.66448975 0.83691406c0.27893066 0.4430542 0.7711487 0.9517517 1.476654 1.5260925c0.7711487 0.6235657 1.4520569 1.0010071 2.0427246 1.1322632c0.60705566 0.13128662 1.0336609 0.32821655 1.2797546 0.5907593c0.98443604 0.70562744 1.9278564 1.6901855 2.8302612 2.9537659c0.9024048 1.2635498 2.7974548 1.8952942 5.6851196 1.8952942c2.2478027 -1.6081543 3.675232 -3.6019287 4.2822876 -5.9813232c0.6070862 -2.3793945 1.3536072 -4.955719 2.239624 -7.7289734c-1.4766846 -2.6255493 -3.2732544 -4.3977966 -5.389801 -5.316742c-2.1001282 -0.9189453 -4.0526123 -1.9445496 -5.8573914 -3.0768433c-1.9360657 -1.1158447 -3.8065186 -2.4942627 -5.6112976 -4.1352234c-1.7883911 -1.6574097 -3.9377441 -2.8224792 -6.448059 -3.4952698c-1.3014832 -0.4059143 -2.531372 -0.6088562 -3.6896057 -0.6088562c-0.19970703 0 -0.39727783 0.0060424805 -0.5927124 0.018096924c-0.3645935 0.02279663 -0.68362427 0.034179688 -0.9570923 0.034179688c-0.710968 0 -1.1138611 -0.07702637 -1.2086487 -0.23110962c-0.09844971 -0.11483765 -0.08206177 -0.6645813 0.049224854 -1.6491699c0.14764404 -0.9845886 -0.29534912 -2.248108 -1.32901 -3.7906494c-2.3790588 -0.7548218 -4.421753 -1.4112244 -6.128113 -1.9691467c-1.6876221 -0.57354736 -3.2279968 -1.253479 -4.6211243 -2.0397644l0 0c0.0028686523 -0.011169434 -0.10568237 -0.19274902 -0.3256836 -0.5447693c-0.24609375 -0.39382935 -0.69729614 -0.8122864 -1.3535767 -1.2553406c-0.85317993 -0.42666626 -1.6735535 -0.7220154 -2.46109 -0.8861389c-0.15264893 -0.034973145 -0.30096436 -0.068725586 -0.4449768 -0.10122681l0 0c0.09631348 -0.0076293945 0.19543457 -0.014892578 0.29730225 -0.021820068c0.73831177 -0.06564331 1.5751038 -0.29537964 2.510315 -0.689209c1.6899414 -0.73846436 3.4127197 -1.6573792 5.168274 -2.756836c1.7555847 -1.0994568 3.4701538 -2.1168518 5.1437073 -3.0522156c1.8211975 -0.8204956 3.7408447 -1.542511 5.7589417 -2.1660767c2.018097 -0.6235657 4.0279846 -1.2307281 6.0296936 -1.8214874c2.0016785 -0.6071625 3.9705505 -1.3045654 5.906616 -2.0922394c1.9360352 -0.7876587 3.7408447 -1.7558289 5.414398 -2.9045105c1.0172424 -0.6235657 1.8294067 -1.1650848 2.4364624 -1.6245575c0.33218384 -0.26039124 0.7822571 -0.39059448 1.3502197 -0.39059448c0.47003174 0 1.020813 0.08917236 1.6523132 0.2675171c1.5258789 -1.2307281 2.854889 -2.174286 3.986969 -2.8306732c1.148529 -0.6563873 2.4447021 -1.4276428 3.8885498 -2.3137665c1.0992737 -0.5743408 2.5021057 -1.0994568 4.2084656 -1.5753326c1.7227478 -0.4922943 3.076355 -1.2963715 4.060791 -2.4122314c1.164917 -0.86972046 1.89505 -2.1496735 2.1903687 -3.8398743c0.29534912 -1.706604 0.6234741 -3.191681 0.98443604 -4.4552307c0.5086365 -1.5097046 0.9762268 -3.240921 1.402832 -5.19368c0.4265747 -1.9527588 -0.66448975 -3.6347504 -3.2732544 -5.04599z" fill-rule="evenodd" />
          <path stroke="#ffffff" stroke-width="24.0" stroke-linejoin="round" stroke-linecap="butt" d="m469.9765 218.631c-2.5431213 0.44306946 -4.3889465 1.0502319 -5.537445 1.8214874c-1.1321106 0.75483704 -2.3462524 1.5014801 -3.6424255 2.239914c-0.6234741 0.3117981 -1.3946228 0.5989685 -2.313446 0.86151123c-0.9187927 0.24615479 -1.8294067 0.6564026 -2.7318115 1.2307281c-2.1001282 0.9845886 -4.126404 2.1332703 -6.078888 3.446045c-1.9360657 1.3127747 -3.7080383 2.289154 -5.3159485 2.9291382c-0.8695984 0.3446045 -1.9278564 0.6563873 -3.1748047 0.9353485c-1.2469788 0.26255798 -2.2806091 0.72203064 -3.1009827 1.378418c-1.164917 1.0338135 -1.9360657 1.9609528 -2.3134155 2.7814484c-0.3609619 0.80407715 -0.75476074 1.2225189 -1.1813354 1.2553406c-0.03579712 0.0059661865 -0.0743103 0.00894165 -0.11553955 0.00894165c-0.18548584 0 -0.42590332 -0.060409546 -0.7212219 -0.1812439c-0.15042114 -0.068374634 -0.36917114 -0.10256958 -0.65631104 -0.10256958c-0.40197754 0 -0.93795776 0.0670166 -1.6079102 0.20101929c-2.4118652 1.11586 -4.92218 2.0430145 -7.530945 2.7814484c-2.6087646 0.73843384 -5.348755 1.7722473 -8.220032 3.1014404c-2.0837402 0.9353485 -4.0854187 2.067627 -6.005066 3.3968048c-1.9196472 1.3291931 -3.6998596 2.3547974 -5.340576 3.076828c-0.7711487 0.3446045 -1.6817627 0.66459656 -2.7318115 0.95996094c-1.0336609 0.27896118 -2.149353 0.59895325 -3.3470764 0.9599762c-1.1813354 0.3610077 -2.3380432 0.7958679 -3.4701538 1.3045654c-1.1321106 0.50871277 -2.1247559 1.1322784 -2.9779358 1.8707123c-0.77111816 0.63998413 -1.673523 1.7886505 -2.7071838 3.4460297c-1.0172424 1.6409912 -1.657135 3.0604248 -1.9196472 4.2583313c-0.18048096 1.0338135 -0.106658936 2.018402 0.22149658 2.9537354c0.34454346 0.93536377 0.7219238 1.796875 1.1321106 2.5845337c0.4265747 0.77127075 0.98443604 1.5343018 1.673523 2.289154c0.68911743 0.73843384 1.3371887 1.2963867 1.9442749 1.6737976c0.6234741 0.45947266 1.2141418 0.74664307 1.7719727 0.86151123c0.5024719 0.100494385 0.7725525 0.15075684 0.8102417 0.15075684c0.0024108887 0 0.0038757324 -2.1362305E-4 0.0043945312 -6.1035156E-4l0 0c0.22973633 0.23049927 0.58169556 0.6809387 1.0557861 1.3513489c0.49224854 0.6563721 1.2305603 1.1979065 2.2149963 1.6245422c0.672699 0.39382935 1.3289795 0.63998413 1.9688721 0.73843384c0.6398926 0.098480225 1.0993042 0.22976685 1.3782043 0.39385986c0.44299316 0.22973633 0.9024048 0.55792236 1.3782349 0.9845581c0.47579956 0.42666626 1.0500488 0.92715454 1.7227478 1.5014954c0.8367615 0.5415344 1.5915222 0.93536377 2.2642212 1.181488c0.672699 0.24615479 1.2879639 0.5661621 1.8457947 0.95999146c0.7383423 0.45947266 1.476654 0.9845886 2.2149963 1.5753174c0.73831177 0.5907593 1.5422974 1.1568909 2.4118652 1.6984253c0.7219238 0.45944214 1.4274292 0.95996094 2.1165466 1.5014648c0.68911743 0.5415344 1.5176697 1.1158752 2.4856873 1.7230225c0.7711487 0.29537964 1.3372192 0.48410034 1.6981812 0.5661316c0.37734985 0.08206177 0.7055054 0.22973633 0.98443604 0.44308472c1.1977234 0.73843384 2.2724 1.5917358 3.2240295 2.559906c0.9680176 0.9517517 2.2887878 1.6819763 3.9623413 2.1907043c1.7720032 0.49227905 3.4537354 0.99276733 5.0452576 1.5014648c1.6079102 0.49230957 2.9286804 1.0830383 3.9623413 1.7722473c0.18048096 0.114868164 0.40197754 0.39385986 0.66448975 0.83691406c0.27893066 0.4430542 0.7711487 0.9517517 1.476654 1.5260925c0.7711487 0.6235657 1.4520569 1.0010071 2.0427246 1.1322632c0.60705566 0.13128662 1.0336609 0.32821655 1.2797546 0.5907593c0.98443604 0.70562744 1.9278564 1.6901855 2.8302612 2.9537659c0.9024048 1.2635498 2.7974548 1.8952942 5.6851196 1.8952942c2.2478027 -1.6081543 3.675232 -3.6019287 4.2822876 -5.9813232c0.6070862 -2.3793945 1.3536072 -4.955719 2.239624 -7.7289734c-1.4766846 -2.6255493 -3.2732544 -4.3977966 -5.389801 -5.316742c-2.1001282 -0.9189453 -4.0526123 -1.9445496 -5.8573914 -3.0768433c-1.9360657 -1.1158447 -3.8065186 -2.4942627 -5.6112976 -4.1352234c-1.7883911 -1.6574097 -3.9377441 -2.8224792 -6.448059 -3.4952698c-1.3014832 -0.4059143 -2.531372 -0.6088562 -3.6896057 -0.6088562c-0.19970703 0 -0.39727783 0.0060424805 -0.5927124 0.018096924c-0.3645935 0.02279663 -0.68362427 0.034179688 -0.9570923 0.034179688c-0.710968 0 -1.1138611 -0.07702637 -1.2086487 -0.23110962c-0.09844971 -0.11483765 -0.08206177 -0.6645813 0.049224854 -1.6491699c0.14764404 -0.9845886 -0.29534912 -2.248108 -1.32901 -3.7906494c-2.3790588 -0.7548218 -4.421753 -1.4112244 -6.128113 -1.9691467c-1.6876221 -0.57354736 -3.2279968 -1.253479 -4.6211243 -2.0397644l0 0c0.0028686523 -0.011169434 -0.10568237 -0.19274902 -0.3256836 -0.5447693c-0.24609375 -0.39382935 -0.69729614 -0.8122864 -1.3535767 -1.2553406c-0.85317993 -0.42666626 -1.6735535 -0.7220154 -2.46109 -0.8861389c-0.15264893 -0.034973145 -0.30096436 -0.068725586 -0.4449768 -0.10122681l0 0c0.09631348 -0.0076293945 0.19543457 -0.014892578 0.29730225 -0.021820068c0.73831177 -0.06564331 1.5751038 -0.29537964 2.510315 -0.689209c1.6899414 -0.73846436 3.4127197 -1.6573792 5.168274 -2.756836c1.7555847 -1.0994568 3.4701538 -2.1168518 5.1437073 -3.0522156c1.8211975 -0.8204956 3.7408447 -1.542511 5.7589417 -2.1660767c2.018097 -0.6235657 4.0279846 -1.2307281 6.0296936 -1.8214874c2.0016785 -0.6071625 3.9705505 -1.3045654 5.906616 -2.0922394c1.9360352 -0.7876587 3.7408447 -1.7558289 5.414398 -2.9045105c1.0172424 -0.6235657 1.8294067 -1.1650848 2.4364624 -1.6245575c0.33218384 -0.26039124 0.7822571 -0.39059448 1.3502197 -0.39059448c0.47003174 0 1.020813 0.08917236 1.6523132 0.2675171c1.5258789 -1.2307281 2.854889 -2.174286 3.986969 -2.8306732c1.148529 -0.6563873 2.4447021 -1.4276428 3.8885498 -2.3137665c1.0992737 -0.5743408 2.5021057 -1.0994568 4.2084656 -1.5753326c1.7227478 -0.4922943 3.076355 -1.2963715 4.060791 -2.4122314c1.164917 -0.86972046 1.89505 -2.1496735 2.1903687 -3.8398743c0.29534912 -1.706604 0.6234741 -3.191681 0.98443604 -4.4552307c0.5086365 -1.5097046 0.9762268 -3.240921 1.402832 -5.19368c0.4265747 -1.9527588 -0.66448975 -3.6347504 -3.2732544 -5.04599z" fill-rule="evenodd" />
          <path fill="#ffffff" d="m506.17548 218.631c-2.3790283 1.5917511 -3.8721008 3.5855255 -4.479187 5.9813385c-0.60705566 2.3794098 -1.3535767 4.9557495 -2.2395935 7.7289734c1.476654 2.609146 3.2732544 4.406021 5.389801 5.3905945c2.1329346 0.9845886 4.142853 1.9937744 6.0296936 3.027588c1.8211975 1.0994568 3.658783 2.4778748 5.512848 4.135254c1.8540039 1.640976 4.027954 2.7978516 6.5218506 3.4706573c1.3015137 0.40589905 2.5253906 0.60884094 3.671692 0.60884094c0.19769287 0 0.39300537 -0.0060272217 0.58599854 -0.018096924c0.44299316 -0.02734375 0.81762695 -0.041030884 1.1239014 -0.041030884c0.6125488 0 0.95166016 0.05470276 1.017273 0.16410828c0.13128662 0.18049622 0.123046875 0.75483704 -0.024597168 1.7230225c-0.13128662 0.96817017 0.3199463 2.2317047 1.3535767 3.7906342c2.3790894 0.7548523 4.4053955 1.4112396 6.0789185 1.969162c1.6899414 0.5579529 3.2322388 1.2799683 4.626831 2.1660767c0.032836914 0.016418457 0.17230225 0.19692993 0.418396 0.5415344c0.24609375 0.3446045 0.65631104 0.70562744 1.2305298 1.0830383c0.7383423 0.45947266 1.5012817 0.77127075 2.2888184 0.93536377c0.19665527 0.04095459 0.38562012 0.0819397 0.56689453 0.12289429l0 0c-0.095825195 0.008392334 -0.19451904 0.016662598 -0.29614258 0.024780273c-0.8039551 0.049224854 -1.6161499 0.27896118 -2.4365234 0.689209c-1.7719727 0.7220154 -3.5029297 1.6573792 -5.192871 2.8060608c-1.673523 1.1322632 -3.4291382 2.1086426 -5.2667236 2.9291382c-1.9032593 0.853302 -3.822937 1.5999451 -5.758972 2.2399292c-1.9196777 0.6235657 -3.8721313 1.2553406 -5.857422 1.8953247c-1.9852905 0.6399536 -3.9459229 1.3291626 -5.882019 2.067627c-1.9196167 0.7220154 -3.7080078 1.6573792 -5.365143 2.8060608c-1.164917 0.6399536 -2.0427246 1.2142944 -2.6333923 1.722992c-0.33587646 0.2975464 -0.79525757 0.44631958 -1.3781128 0.44631958c-0.41363525 0 -0.88949585 -0.074920654 -1.4275208 -0.22476196c-1.6243286 1.181488 -2.9861145 2.084015 -4.0854187 2.7075806c-1.0828857 0.60717773 -2.4364624 1.3702087 -4.060791 2.289154c-1.0008545 0.67282104 -2.3544617 1.214325 -4.060791 1.6245728c-1.7063599 0.4102478 -3.092804 1.1486816 -4.1592712 2.2153015c-1.1813049 1.0338135 -1.8868103 2.3876343 -2.116516 4.0614014c-0.22970581 1.6574097 -0.52505493 3.1096497 -0.88601685 4.356781c-0.50860596 1.6245728 -0.9762268 3.3804016 -1.4028015 5.267517c-0.44299316 1.8871155 0.6480713 3.5444946 3.2732544 4.9721375c2.5431213 -0.4430542 4.372528 -1.0420227 5.48822 -1.7968445c1.1321106 -0.7548523 2.3462524 -1.4522705 3.6424255 -2.0922546c0.6890869 -0.3446045 1.493042 -0.6727905 2.4118652 -0.9845581c0.91882324 -0.3117981 1.8211975 -0.73846436 2.7072144 -1.2799683c1.98526 -1.0010071 3.9705505 -2.1496582 5.955841 -3.446045c1.98526 -1.3127747 3.7900696 -2.289154 5.414398 -2.9291382c0.8859863 -0.3446045 1.9278564 -0.64819336 3.1256104 -0.9107361c1.1976929 -0.27896118 2.182129 -0.7302246 2.953308 -1.3537903c1.2961426 -1.0502319 2.1083374 -1.9855652 2.4364624 -2.8060608c0.34454346 -0.8204956 0.69732666 -1.2471619 1.0582886 -1.2799683c0.043701172 -0.0054626465 0.08795166 -0.0082092285 0.13256836 -0.0082092285c0.22332764 0 0.45806885 0.06838989 0.7041626 0.20513916c0.12200928 0.057800293 0.32061768 0.08666992 0.5958252 0.08666992c0.42816162 0 1.041687 -0.06991577 1.8406982 -0.20974731c2.329834 -1.0994568 4.7990723 -1.9937744 7.407837 -2.6829834c2.625183 -0.70562744 5.3651733 -1.7722473 8.220093 -3.1998901c2.182129 -0.93536377 4.183838 -2.0430298 6.005066 -3.3229675c1.8375854 -1.2963867 3.6259766 -2.3547974 5.3651733 -3.175293c0.7546997 -0.32818604 1.673523 -0.6317749 2.7564087 -0.9107361c1.0993042 -0.29537964 2.206787 -0.61535645 3.3224487 -0.95996094c1.1321411 -0.36102295 2.2888184 -0.7630615 3.4701538 -1.2061157c1.1813354 -0.45947266 2.239624 -1.0994568 3.1748047 -1.9199524c0.7711792 -0.7548523 1.6489258 -1.9363403 2.6333618 -3.5444946c1.0008545 -1.6081543 1.6407471 -2.9537354 1.9196777 -4.0367737c0.31170654 -1.8543091 -0.123046875 -3.6757812 -1.3043823 -5.464447c-1.164917 -1.7886505 -2.3462524 -3.1670685 -3.5439453 -4.1352386c-0.7055664 -0.52511597 -1.3618164 -0.84510803 -1.9688721 -0.9599762c-0.59069824 -0.114868164 -0.9434204 -0.19691467 -1.0582886 -0.24613953c-0.21331787 -0.18051147 -0.5168457 -0.5825348 -0.91064453 -1.2061157c-0.3937378 -0.6235657 -1.1156616 -1.1979065 -2.1657104 -1.7230225c-0.7219238 -0.27896118 -1.3864136 -0.46766663 -1.9935303 -0.5661316c-0.60705566 -0.098464966 -1.0910645 -0.23794556 -1.4520264 -0.41844177c-0.328125 -0.16410828 -0.7055054 -0.4758911 -1.1320801 -0.93536377c-0.4265747 -0.47587585 -0.98443604 -1.0009766 -1.673584 -1.5753326c-0.83673096 -0.7056122 -1.6325073 -1.1650848 -2.387207 -1.378418c-0.7383423 -0.21331787 -1.402832 -0.5004883 -1.9935303 -0.861496c-0.7219238 -0.45948792 -1.4191895 -0.943573 -2.091919 -1.4522705c-0.65631104 -0.5251007 -1.4110107 -1.1076508 -2.2642212 -1.7476349c-0.7875366 -0.5086975 -1.5504761 -1.0338135 -2.2888184 -1.5753326c-0.73828125 -0.54151917 -1.5586548 -1.0912323 -2.4610596 -1.6491699c-0.65631104 -0.32818604 -1.2469482 -0.53330994 -1.7719727 -0.6153717c-0.508667 -0.09844971 -0.8696289 -0.21331787 -1.0828857 -0.3446045c-1.017273 -0.6891937 -2.0427246 -1.542511 -3.076355 -2.559906c-1.017273 -1.017395 -2.4036865 -1.7804565 -4.1592407 -2.289154c-1.6571655 -0.4922943 -3.2814941 -0.9845886 -4.872986 -1.4768829c-1.5914917 -0.5086975 -2.8548584 -1.0994415 -3.7901 -1.7722473c-0.2625122 -0.16409302 -0.5496216 -0.46766663 -0.86138916 -0.9107361c-0.31170654 -0.4430542 -0.8039551 -0.9353485 -1.4766235 -1.4768677c-0.75476074 -0.6071625 -1.4274292 -0.9845886 -2.0181274 -1.1322784c-0.5906372 -0.14768982 -1.0172119 -0.31999207 -1.2797241 -0.51690674c-0.91882324 -0.689209 -1.8868408 -1.6819916 -2.9041138 -2.978363c-1.0008545 -1.2963562 -2.8138428 -1.9445496 -5.439026 -1.9445496z" fill-rule="evenodd" />
          <path stroke="#ffffff" stroke-width="24.0" stroke-linejoin="round" stroke-linecap="butt" d="m506.17548 218.631c-2.3790283 1.5917511 -3.8721008 3.5855255 -4.479187 5.9813385c-0.60705566 2.3794098 -1.3535767 4.9557495 -2.2395935 7.7289734c1.476654 2.609146 3.2732544 4.406021 5.389801 5.3905945c2.1329346 0.9845886 4.142853 1.9937744 6.0296936 3.027588c1.8211975 1.0994568 3.658783 2.4778748 5.512848 4.135254c1.8540039 1.640976 4.027954 2.7978516 6.5218506 3.4706573c1.3015137 0.40589905 2.5253906 0.60884094 3.671692 0.60884094c0.19769287 0 0.39300537 -0.0060272217 0.58599854 -0.018096924c0.44299316 -0.02734375 0.81762695 -0.041030884 1.1239014 -0.041030884c0.6125488 0 0.95166016 0.05470276 1.017273 0.16410828c0.13128662 0.18049622 0.123046875 0.75483704 -0.024597168 1.7230225c-0.13128662 0.96817017 0.3199463 2.2317047 1.3535767 3.7906342c2.3790894 0.7548523 4.4053955 1.4112396 6.0789185 1.969162c1.6899414 0.5579529 3.2322388 1.2799683 4.626831 2.1660767c0.032836914 0.016418457 0.17230225 0.19692993 0.418396 0.5415344c0.24609375 0.3446045 0.65631104 0.70562744 1.2305298 1.0830383c0.7383423 0.45947266 1.5012817 0.77127075 2.2888184 0.93536377c0.19665527 0.04095459 0.38562012 0.0819397 0.56689453 0.12289429l0 0c-0.095825195 0.008392334 -0.19451904 0.016662598 -0.29614258 0.024780273c-0.8039551 0.049224854 -1.6161499 0.27896118 -2.4365234 0.689209c-1.7719727 0.7220154 -3.5029297 1.6573792 -5.192871 2.8060608c-1.673523 1.1322632 -3.4291382 2.1086426 -5.2667236 2.9291382c-1.9032593 0.853302 -3.822937 1.5999451 -5.758972 2.2399292c-1.9196777 0.6235657 -3.8721313 1.2553406 -5.857422 1.8953247c-1.9852905 0.6399536 -3.9459229 1.3291626 -5.882019 2.067627c-1.9196167 0.7220154 -3.7080078 1.6573792 -5.365143 2.8060608c-1.164917 0.6399536 -2.0427246 1.2142944 -2.6333923 1.722992c-0.33587646 0.2975464 -0.79525757 0.44631958 -1.3781128 0.44631958c-0.41363525 0 -0.88949585 -0.074920654 -1.4275208 -0.22476196c-1.6243286 1.181488 -2.9861145 2.084015 -4.0854187 2.7075806c-1.0828857 0.60717773 -2.4364624 1.3702087 -4.060791 2.289154c-1.0008545 0.67282104 -2.3544617 1.214325 -4.060791 1.6245728c-1.7063599 0.4102478 -3.092804 1.1486816 -4.1592712 2.2153015c-1.1813049 1.0338135 -1.8868103 2.3876343 -2.116516 4.0614014c-0.22970581 1.6574097 -0.52505493 3.1096497 -0.88601685 4.356781c-0.50860596 1.6245728 -0.9762268 3.3804016 -1.4028015 5.267517c-0.44299316 1.8871155 0.6480713 3.5444946 3.2732544 4.9721375c2.5431213 -0.4430542 4.372528 -1.0420227 5.48822 -1.7968445c1.1321106 -0.7548523 2.3462524 -1.4522705 3.6424255 -2.0922546c0.6890869 -0.3446045 1.493042 -0.6727905 2.4118652 -0.9845581c0.91882324 -0.3117981 1.8211975 -0.73846436 2.7072144 -1.2799683c1.98526 -1.0010071 3.9705505 -2.1496582 5.955841 -3.446045c1.98526 -1.3127747 3.7900696 -2.289154 5.414398 -2.9291382c0.8859863 -0.3446045 1.9278564 -0.64819336 3.1256104 -0.9107361c1.1976929 -0.27896118 2.182129 -0.7302246 2.953308 -1.3537903c1.2961426 -1.0502319 2.1083374 -1.9855652 2.4364624 -2.8060608c0.34454346 -0.8204956 0.69732666 -1.2471619 1.0582886 -1.2799683c0.043701172 -0.0054626465 0.08795166 -0.0082092285 0.13256836 -0.0082092285c0.22332764 0 0.45806885 0.06838989 0.7041626 0.20513916c0.12200928 0.057800293 0.32061768 0.08666992 0.5958252 0.08666992c0.42816162 0 1.041687 -0.06991577 1.8406982 -0.20974731c2.329834 -1.0994568 4.7990723 -1.9937744 7.407837 -2.6829834c2.625183 -0.70562744 5.3651733 -1.7722473 8.220093 -3.1998901c2.182129 -0.93536377 4.183838 -2.0430298 6.005066 -3.3229675c1.8375854 -1.2963867 3.6259766 -2.3547974 5.3651733 -3.175293c0.7546997 -0.32818604 1.673523 -0.6317749 2.7564087 -0.9107361c1.0993042 -0.29537964 2.206787 -0.61535645 3.3224487 -0.95996094c1.1321411 -0.36102295 2.2888184 -0.7630615 3.4701538 -1.2061157c1.1813354 -0.45947266 2.239624 -1.0994568 3.1748047 -1.9199524c0.7711792 -0.7548523 1.6489258 -1.9363403 2.6333618 -3.5444946c1.0008545 -1.6081543 1.6407471 -2.9537354 1.9196777 -4.0367737c0.31170654 -1.8543091 -0.123046875 -3.6757812 -1.3043823 -5.464447c-1.164917 -1.7886505 -2.3462524 -3.1670685 -3.5439453 -4.1352386c-0.7055664 -0.52511597 -1.3618164 -0.84510803 -1.9688721 -0.9599762c-0.59069824 -0.114868164 -0.9434204 -0.19691467 -1.0582886 -0.24613953c-0.21331787 -0.18051147 -0.5168457 -0.5825348 -0.91064453 -1.2061157c-0.3937378 -0.6235657 -1.1156616 -1.1979065 -2.1657104 -1.7230225c-0.7219238 -0.27896118 -1.3864136 -0.46766663 -1.9935303 -0.5661316c-0.60705566 -0.098464966 -1.0910645 -0.23794556 -1.4520264 -0.41844177c-0.328125 -0.16410828 -0.7055054 -0.4758911 -1.1320801 -0.93536377c-0.4265747 -0.47587585 -0.98443604 -1.0009766 -1.673584 -1.5753326c-0.83673096 -0.7056122 -1.6325073 -1.1650848 -2.387207 -1.378418c-0.7383423 -0.21331787 -1.402832 -0.5004883 -1.9935303 -0.861496c-0.7219238 -0.45948792 -1.4191895 -0.943573 -2.091919 -1.4522705c-0.65631104 -0.5251007 -1.4110107 -1.1076508 -2.2642212 -1.7476349c-0.7875366 -0.5086975 -1.5504761 -1.0338135 -2.2888184 -1.5753326c-0.73828125 -0.54151917 -1.5586548 -1.0912323 -2.4610596 -1.6491699c-0.65631104 -0.32818604 -1.2469482 -0.53330994 -1.7719727 -0.6153717c-0.508667 -0.09844971 -0.8696289 -0.21331787 -1.0828857 -0.3446045c-1.017273 -0.6891937 -2.0427246 -1.542511 -3.076355 -2.559906c-1.017273 -1.017395 -2.4036865 -1.7804565 -4.1592407 -2.289154c-1.6571655 -0.4922943 -3.2814941 -0.9845886 -4.872986 -1.4768829c-1.5914917 -0.5086975 -2.8548584 -1.0994415 -3.7901 -1.7722473c-0.2625122 -0.16409302 -0.5496216 -0.46766663 -0.86138916 -0.9107361c-0.31170654 -0.4430542 -0.8039551 -0.9353485 -1.4766235 -1.4768677c-0.75476074 -0.6071625 -1.4274292 -0.9845886 -2.0181274 -1.1322784c-0.5906372 -0.14768982 -1.0172119 -0.31999207 -1.2797241 -0.51690674c-0.91882324 -0.689209 -1.8868408 -1.6819916 -2.9041138 -2.978363c-1.0008545 -1.2963562 -2.8138428 -1.9445496 -5.439026 -1.9445496z" fill-rule="evenodd" />
          <path fill="#096f9d" d="m397.4272 262.17102l0 0c0 -121.25911 36.268433 -219.552 81.00787 -219.5433l0 0c21.48462 0.004173279 42.089294 23.140228 57.28119 64.31849c15.191956 41.17827 23.726685 97.025635 23.726685 155.2563l0 0c0 121.259125 -36.268494 219.552 -81.00787 219.5433l0 0c-44.73944 -0.00869751 -81.00787 -98.315674 -81.00787 -219.5748zm20.83197 0.004058838l0 0c0 52.70569 6.3399353 103.25394 17.625122 140.52469c11.285156 37.270752 26.591125 58.210968 42.55078 58.21408l0 0c33.234222 0.0064697266 60.175903 -88.96146 60.175903 -198.71536l0 0c0 -109.75394 -26.94168 -198.73232 -60.175903 -198.73877l0 0c-33.234253 -0.006462097 -60.175903 88.96143 -60.175903 198.71536z" fill-rule="evenodd" />
          <path fill="#096f9d" d="m433.75867 329.75443l0 0c-101.159424 -66.8569 -163.16272 -151.30939 -138.48819 -188.62991l0 0c11.849121 -17.921951 42.51065 -22.35588 85.23941 -12.3263855c42.72876 10.0295105 94.02463 33.700882 142.60309 65.8067l0 0c101.159424 66.8569 163.16272 151.30939 138.48822 188.62991l0 0c-24.6745 37.320526 -126.683105 13.376587 -227.84253 -53.480316zm11.489166 -17.377533l0 0c43.969147 29.059479 89.634 51.640137 126.94882 62.774475c37.31488 11.134338 63.223022 9.910309 72.025024 -3.402832l0 0c18.329224 -27.723175 -41.036865 -99.25293 -132.59787 -159.76617l0 0c-91.561005 -60.51323 -180.64462 -87.09482 -198.97385 -59.371628l0 0c-18.329224 27.723175 41.036865 99.25293 132.59787 159.76616z" fill-rule="evenodd" />
          <path fill="#096f9d" d="m433.24274 194.96004l0 0c100.62891 -67.64835 202.43298 -92.38902 227.38586 -55.259842l0 0c11.982727 17.830078 4.2781982 47.83484 -21.418701 83.41359c-25.6969 35.57875 -67.28125 73.81706 -115.60492 106.30296l0 0c-100.62891 67.648346 -202.43301 92.38901 -227.38586 55.259827l0 0c-24.95282 -37.12918 36.394745 -122.06818 137.02362 -189.71654zm11.618774 17.288452l0 0c-43.738922 29.403763 -82.15042 62.86473 -106.78436 93.021866c-24.633972 30.157166 -33.472473 54.54016 -24.571198 67.785065l0 0c18.53598 27.581024 107.39859 0.30303955 198.48022 -60.927124l0 0c91.081635 -61.230164 149.89151 -133.22588 131.35556 -160.80692l0 0c-18.53595 -27.581055 -107.39856 -0.3030548 -198.48022 60.92711z" fill-rule="evenodd" />
          <path fill="#096f9d" d="m339.44376 393.0343l0 0c0 -11.767578 9.53952 -21.307068 21.307098 -21.307068l0 0c5.651001 0 11.070526 2.2448425 15.066376 6.240692c3.9958496 3.9958496 6.240692 9.415405 6.240692 15.066376l0 0c0 11.767578 -9.53949 21.307098 -21.307068 21.307098l0 0c-11.767578 0 -21.307098 -9.53952 -21.307098 -21.307098z" fill-rule="evenodd" />
          <path stroke="#ffffff" stroke-width="12.0" stroke-linejoin="round" stroke-linecap="butt" d="m339.44376 393.0343l0 0c0 -11.767578 9.53952 -21.307068 21.307098 -21.307068l0 0c5.651001 0 11.070526 2.2448425 15.066376 6.240692c3.9958496 3.9958496 6.240692 9.415405 6.240692 15.066376l0 0c0 11.767578 -9.53949 21.307098 -21.307068 21.307098l0 0c-11.767578 0 -21.307098 -9.53952 -21.307098 -21.307098z" fill-rule="evenodd" />
          <path fill="#096f9d" d="m412.00397 93.77842l0 0c0 -11.767578 9.53949 -21.307083 21.307068 -21.307083l0 0c5.651001 0 11.070526 2.2448502 15.066406 6.2407c3.9958496 3.9958572 6.240692 9.415398 6.240692 15.066383l0 0c0 11.767586 -9.53952 21.30709 -21.307098 21.30709l0 0c-11.767578 0 -21.307068 -9.539505 -21.307068 -21.30709z" fill-rule="evenodd" />
          <path stroke="#ffffff" stroke-width="12.0" stroke-linejoin="round" stroke-linecap="butt" d="m412.00397 93.77842l0 0c0 -11.767578 9.53949 -21.307083 21.307068 -21.307083l0 0c5.651001 0 11.070526 2.2448502 15.066406 6.2407c3.9958496 3.9958572 6.240692 9.415398 6.240692 15.066383l0 0c0 11.767586 -9.53952 21.30709 -21.307098 21.30709l0 0c-11.767578 0 -21.307068 -9.539505 -21.307068 -21.30709z" fill-rule="evenodd" />
          <path fill="#096f9d" d="m611.71375 218.41722l0 0c0 -11.767578 9.53949 -21.307083 21.307129 -21.307083l0 0c5.65094 0 11.070496 2.2448425 15.066345 6.2407074c3.9958496 3.9958496 6.2407227 9.41539 6.2407227 15.066376l0 0c0 11.767578 -9.53949 21.307098 -21.307068 21.307098l0 0c-11.767639 0 -21.307129 -9.53952 -21.307129 -21.307098z" fill-rule="evenodd" />
          <path stroke="#ffffff" stroke-width="12.0" stroke-linejoin="round" stroke-linecap="butt" d="m611.71375 218.41722l0 0c0 -11.767578 9.53949 -21.307083 21.307129 -21.307083l0 0c5.65094 0 11.070496 2.2448425 15.066345 6.2407074c3.9958496 3.9958496 6.2407227 9.41539 6.2407227 15.066376l0 0c0 11.767578 -9.53949 21.307098 -21.307068 21.307098l0 0c-11.767639 0 -21.307129 -9.53952 -21.307129 -21.307098z" fill-rule="evenodd" />
          <path fill="#096f9d" d="m469.9752 218.03207c-2.5431213 0.44306946 -4.3889465 1.0502167 -5.537445 1.8214874c-1.1321106 0.75483704 -2.3462524 1.5014801 -3.6424255 2.239914c-0.6234741 0.3117981 -1.3946228 0.5989685 -2.313446 0.86151123c-0.9187927 0.24615479 -1.8294067 0.6563873 -2.7318115 1.2307281c-2.1001282 0.9845886 -4.126404 2.1332703 -6.078888 3.446045c-1.9360657 1.3127747 -3.7080383 2.289154 -5.3159485 2.9291382c-0.8695984 0.34458923 -1.9278564 0.6563873 -3.1748047 0.9353485c-1.2469788 0.26255798 -2.2806091 0.72203064 -3.1009827 1.378418c-1.164917 1.0338135 -1.9360657 1.9609528 -2.3134155 2.7814484c-0.3609619 0.80407715 -0.75476074 1.2225189 -1.1813354 1.2553406c-0.03579712 0.0059661865 -0.0743103 0.00894165 -0.11553955 0.00894165c-0.18548584 0 -0.42590332 -0.060409546 -0.7212219 -0.1812439c-0.15042114 -0.068374634 -0.36917114 -0.10256958 -0.65631104 -0.10256958c-0.40197754 0 -0.93795776 0.06700134 -1.6079102 0.20101929c-2.4118652 1.11586 -4.92218 2.0430145 -7.530945 2.7814484c-2.6087646 0.73843384 -5.348755 1.7722473 -8.220032 3.1014404c-2.0837402 0.9353485 -4.0854187 2.067627 -6.005066 3.3968048c-1.9196472 1.3291931 -3.6998596 2.3547974 -5.340576 3.076828c-0.7711487 0.3446045 -1.6817627 0.6645813 -2.7318115 0.95996094c-1.0336609 0.27896118 -2.149353 0.59895325 -3.3470764 0.9599762c-1.1813354 0.3610077 -2.3380432 0.7958679 -3.4701538 1.3045654c-1.1321106 0.5086975 -2.1247559 1.1322784 -2.9779358 1.8707123c-0.77111816 0.6399689 -1.673523 1.7886658 -2.7071838 3.446045c-1.0172424 1.6409607 -1.657135 3.0603943 -1.9196472 4.258301c-0.18048096 1.0338135 -0.106658936 2.018402 0.22149658 2.9537659c0.34454346 0.93533325 0.7219238 1.7968445 1.1321106 2.5845337c0.4265747 0.77124023 0.98443604 1.5343018 1.673523 2.289154c0.68911743 0.73843384 1.3371887 1.2963562 1.9442749 1.6737671c0.6234741 0.45947266 1.2141418 0.74664307 1.7719727 0.86151123c0.5024719 0.1005249 0.7725525 0.15078735 0.8102417 0.15078735c0.0024108887 0 0.0038757324 -2.1362305E-4 0.0043945312 -6.4086914E-4l0 0c0.22973633 0.23049927 0.58169556 0.6809387 1.0557861 1.3513489c0.49224854 0.6564026 1.2305603 1.1979065 2.2149963 1.6245728c0.672699 0.39382935 1.3289795 0.63998413 1.9688721 0.73843384c0.6398926 0.09844971 1.0993042 0.22973633 1.3782043 0.39382935c0.44299316 0.22973633 0.9024048 0.55792236 1.3782349 0.9845886c0.47579956 0.42663574 1.0500488 0.92715454 1.7227478 1.5014954c0.8367615 0.5415039 1.5915222 0.93533325 2.2642212 1.181488c0.672699 0.24615479 1.2879639 0.5661316 1.8457947 0.95996094c0.7383423 0.45947266 1.476654 0.9845886 2.2149963 1.5753479c0.73831177 0.59072876 1.5422974 1.1568604 2.4118652 1.6983948c0.7219238 0.45947266 1.4274292 0.95996094 2.1165466 1.5014954c0.68911743 0.5415039 1.5176697 1.1158447 2.4856873 1.7230225c0.7711487 0.29534912 1.3372192 0.48406982 1.6981812 0.5661316c0.37734985 0.08203125 0.7055054 0.22973633 0.98443604 0.4430542c1.1977234 0.73843384 2.2724 1.5917358 3.2240295 2.559906c0.9680176 0.9517822 2.2887878 1.6820068 3.9623413 2.1907043c1.7720032 0.49227905 3.4537354 0.99279785 5.0452576 1.5014954c1.6079102 0.49227905 2.9286804 1.0830383 3.9623413 1.7722473c0.18048096 0.114868164 0.40197754 0.39382935 0.66448975 0.83688354c0.27893066 0.44308472 0.7711487 0.9517822 1.476654 1.526123c0.7711487 0.6235657 1.4520569 1.0009766 2.0427246 1.1322632c0.60705566 0.13128662 1.0336609 0.32818604 1.2797546 0.5907593c0.98443604 0.7055969 1.9278564 1.6901855 2.8302612 2.9537354c0.9024048 1.2635498 2.7974548 1.8953247 5.6851196 1.8953247c2.2478027 -1.6081543 3.675232 -3.6019287 4.2822876 -5.9813538c0.6070862 -2.3793945 1.3536072 -4.955719 2.239624 -7.7289734c-1.4766846 -2.6255493 -3.2732544 -4.3977966 -5.389801 -5.316742c-2.1001282 -0.9189453 -4.0526123 -1.9445496 -5.8573914 -3.0768127c-1.9360657 -1.1158752 -3.8065186 -2.4942932 -5.6112976 -4.135254c-1.7883911 -1.6573792 -3.9377441 -2.8224792 -6.448059 -3.4952698c-1.3014832 -0.4058838 -2.531372 -0.6088562 -3.6896057 -0.6088562c-0.19970703 0 -0.39727783 0.0060424805 -0.5927124 0.018096924c-0.3645935 0.02279663 -0.68362427 0.034210205 -0.9570923 0.034210205c-0.710968 0 -1.1138611 -0.077056885 -1.2086487 -0.23110962c-0.09844971 -0.114868164 -0.08206177 -0.6646118 0.049224854 -1.6491699c0.14764404 -0.9845886 -0.29534912 -2.2481384 -1.32901 -3.7906494c-2.3790588 -0.7548523 -4.421753 -1.4112549 -6.128113 -1.9691772c-1.6876221 -0.57354736 -3.2279968 -1.253479 -4.6211243 -2.0397644l0 0c0.0028686523 -0.011169434 -0.10568237 -0.19274902 -0.3256836 -0.5447693c-0.24609375 -0.39382935 -0.69729614 -0.81225586 -1.3535767 -1.2553406c-0.85317993 -0.42663574 -1.6735535 -0.7220154 -2.46109 -0.8861084c-0.15264893 -0.034973145 -0.30096436 -0.068725586 -0.4449768 -0.101257324l0 0c0.09631348 -0.007598877 0.19543457 -0.014862061 0.29730225 -0.021820068c0.73831177 -0.06564331 1.5751038 -0.29537964 2.510315 -0.689209c1.6899414 -0.73843384 3.4127197 -1.6573792 5.168274 -2.756836c1.7555847 -1.0994568 3.4701538 -2.1168518 5.1437073 -3.0522156c1.8211975 -0.8204651 3.7408447 -1.5424957 5.7589417 -2.1660614c2.018097 -0.62358093 4.0279846 -1.2307281 6.0296936 -1.8214874c2.0016785 -0.6071625 3.9705505 -1.3045654 5.906616 -2.0922394c1.9360352 -0.7876587 3.7408447 -1.7558289 5.414398 -2.9045105c1.0172424 -0.6235657 1.8294067 -1.1650848 2.4364624 -1.6245728c0.33218384 -0.26037598 0.7822571 -0.39057922 1.3502197 -0.39057922c0.47003174 0 1.020813 0.08917236 1.6523132 0.2675171c1.5258789 -1.2307281 2.854889 -2.174286 3.986969 -2.8306732c1.148529 -0.6564026 2.4447021 -1.4276428 3.8885498 -2.3137817c1.0992737 -0.57432556 2.5021057 -1.0994415 4.2084656 -1.5753326c1.7227478 -0.49227905 3.076355 -1.2963562 4.060791 -2.4122162c1.164917 -0.86972046 1.89505 -2.1496735 2.1903687 -3.8398743c0.29534912 -1.706604 0.6234741 -3.191681 0.98443604 -4.455246c0.5086365 -1.5096893 0.9762268 -3.2409058 1.402832 -5.1936646c0.4265747 -1.9527588 -0.66448975 -3.6347504 -3.2732544 -5.04599z" fill-rule="evenodd" />
          <path stroke="#ffffff" stroke-width="16.0" stroke-linejoin="round" stroke-linecap="butt" d="m469.9752 218.03207c-2.5431213 0.44306946 -4.3889465 1.0502167 -5.537445 1.8214874c-1.1321106 0.75483704 -2.3462524 1.5014801 -3.6424255 2.239914c-0.6234741 0.3117981 -1.3946228 0.5989685 -2.313446 0.86151123c-0.9187927 0.24615479 -1.8294067 0.6563873 -2.7318115 1.2307281c-2.1001282 0.9845886 -4.126404 2.1332703 -6.078888 3.446045c-1.9360657 1.3127747 -3.7080383 2.289154 -5.3159485 2.9291382c-0.8695984 0.34458923 -1.9278564 0.6563873 -3.1748047 0.9353485c-1.2469788 0.26255798 -2.2806091 0.72203064 -3.1009827 1.378418c-1.164917 1.0338135 -1.9360657 1.9609528 -2.3134155 2.7814484c-0.3609619 0.80407715 -0.75476074 1.2225189 -1.1813354 1.2553406c-0.03579712 0.0059661865 -0.0743103 0.00894165 -0.11553955 0.00894165c-0.18548584 0 -0.42590332 -0.060409546 -0.7212219 -0.1812439c-0.15042114 -0.068374634 -0.36917114 -0.10256958 -0.65631104 -0.10256958c-0.40197754 0 -0.93795776 0.06700134 -1.6079102 0.20101929c-2.4118652 1.11586 -4.92218 2.0430145 -7.530945 2.7814484c-2.6087646 0.73843384 -5.348755 1.7722473 -8.220032 3.1014404c-2.0837402 0.9353485 -4.0854187 2.067627 -6.005066 3.3968048c-1.9196472 1.3291931 -3.6998596 2.3547974 -5.340576 3.076828c-0.7711487 0.3446045 -1.6817627 0.6645813 -2.7318115 0.95996094c-1.0336609 0.27896118 -2.149353 0.59895325 -3.3470764 0.9599762c-1.1813354 0.3610077 -2.3380432 0.7958679 -3.4701538 1.3045654c-1.1321106 0.5086975 -2.1247559 1.1322784 -2.9779358 1.8707123c-0.77111816 0.6399689 -1.673523 1.7886658 -2.7071838 3.446045c-1.0172424 1.6409607 -1.657135 3.0603943 -1.9196472 4.258301c-0.18048096 1.0338135 -0.106658936 2.018402 0.22149658 2.9537659c0.34454346 0.93533325 0.7219238 1.7968445 1.1321106 2.5845337c0.4265747 0.77124023 0.98443604 1.5343018 1.673523 2.289154c0.68911743 0.73843384 1.3371887 1.2963562 1.9442749 1.6737671c0.6234741 0.45947266 1.2141418 0.74664307 1.7719727 0.86151123c0.5024719 0.1005249 0.7725525 0.15078735 0.8102417 0.15078735c0.0024108887 0 0.0038757324 -2.1362305E-4 0.0043945312 -6.4086914E-4l0 0c0.22973633 0.23049927 0.58169556 0.6809387 1.0557861 1.3513489c0.49224854 0.6564026 1.2305603 1.1979065 2.2149963 1.6245728c0.672699 0.39382935 1.3289795 0.63998413 1.9688721 0.73843384c0.6398926 0.09844971 1.0993042 0.22973633 1.3782043 0.39382935c0.44299316 0.22973633 0.9024048 0.55792236 1.3782349 0.9845886c0.47579956 0.42663574 1.0500488 0.92715454 1.7227478 1.5014954c0.8367615 0.5415039 1.5915222 0.93533325 2.2642212 1.181488c0.672699 0.24615479 1.2879639 0.5661316 1.8457947 0.95996094c0.7383423 0.45947266 1.476654 0.9845886 2.2149963 1.5753479c0.73831177 0.59072876 1.5422974 1.1568604 2.4118652 1.6983948c0.7219238 0.45947266 1.4274292 0.95996094 2.1165466 1.5014954c0.68911743 0.5415039 1.5176697 1.1158447 2.4856873 1.7230225c0.7711487 0.29534912 1.3372192 0.48406982 1.6981812 0.5661316c0.37734985 0.08203125 0.7055054 0.22973633 0.98443604 0.4430542c1.1977234 0.73843384 2.2724 1.5917358 3.2240295 2.559906c0.9680176 0.9517822 2.2887878 1.6820068 3.9623413 2.1907043c1.7720032 0.49227905 3.4537354 0.99279785 5.0452576 1.5014954c1.6079102 0.49227905 2.9286804 1.0830383 3.9623413 1.7722473c0.18048096 0.114868164 0.40197754 0.39382935 0.66448975 0.83688354c0.27893066 0.44308472 0.7711487 0.9517822 1.476654 1.526123c0.7711487 0.6235657 1.4520569 1.0009766 2.0427246 1.1322632c0.60705566 0.13128662 1.0336609 0.32818604 1.2797546 0.5907593c0.98443604 0.7055969 1.9278564 1.6901855 2.8302612 2.9537354c0.9024048 1.2635498 2.7974548 1.8953247 5.6851196 1.8953247c2.2478027 -1.6081543 3.675232 -3.6019287 4.2822876 -5.9813538c0.6070862 -2.3793945 1.3536072 -4.955719 2.239624 -7.7289734c-1.4766846 -2.6255493 -3.2732544 -4.3977966 -5.389801 -5.316742c-2.1001282 -0.9189453 -4.0526123 -1.9445496 -5.8573914 -3.0768127c-1.9360657 -1.1158752 -3.8065186 -2.4942932 -5.6112976 -4.135254c-1.7883911 -1.6573792 -3.9377441 -2.8224792 -6.448059 -3.4952698c-1.3014832 -0.4058838 -2.531372 -0.6088562 -3.6896057 -0.6088562c-0.19970703 0 -0.39727783 0.0060424805 -0.5927124 0.018096924c-0.3645935 0.02279663 -0.68362427 0.034210205 -0.9570923 0.034210205c-0.710968 0 -1.1138611 -0.077056885 -1.2086487 -0.23110962c-0.09844971 -0.114868164 -0.08206177 -0.6646118 0.049224854 -1.6491699c0.14764404 -0.9845886 -0.29534912 -2.2481384 -1.32901 -3.7906494c-2.3790588 -0.7548523 -4.421753 -1.4112549 -6.128113 -1.9691772c-1.6876221 -0.57354736 -3.2279968 -1.253479 -4.6211243 -2.0397644l0 0c0.0028686523 -0.011169434 -0.10568237 -0.19274902 -0.3256836 -0.5447693c-0.24609375 -0.39382935 -0.69729614 -0.81225586 -1.3535767 -1.2553406c-0.85317993 -0.42663574 -1.6735535 -0.7220154 -2.46109 -0.8861084c-0.15264893 -0.034973145 -0.30096436 -0.068725586 -0.4449768 -0.101257324l0 0c0.09631348 -0.007598877 0.19543457 -0.014862061 0.29730225 -0.021820068c0.73831177 -0.06564331 1.5751038 -0.29537964 2.510315 -0.689209c1.6899414 -0.73843384 3.4127197 -1.6573792 5.168274 -2.756836c1.7555847 -1.0994568 3.4701538 -2.1168518 5.1437073 -3.0522156c1.8211975 -0.8204651 3.7408447 -1.5424957 5.7589417 -2.1660614c2.018097 -0.62358093 4.0279846 -1.2307281 6.0296936 -1.8214874c2.0016785 -0.6071625 3.9705505 -1.3045654 5.906616 -2.0922394c1.9360352 -0.7876587 3.7408447 -1.7558289 5.414398 -2.9045105c1.0172424 -0.6235657 1.8294067 -1.1650848 2.4364624 -1.6245728c0.33218384 -0.26037598 0.7822571 -0.39057922 1.3502197 -0.39057922c0.47003174 0 1.020813 0.08917236 1.6523132 0.2675171c1.5258789 -1.2307281 2.854889 -2.174286 3.986969 -2.8306732c1.148529 -0.6564026 2.4447021 -1.4276428 3.8885498 -2.3137817c1.0992737 -0.57432556 2.5021057 -1.0994415 4.2084656 -1.5753326c1.7227478 -0.49227905 3.076355 -1.2963562 4.060791 -2.4122162c1.164917 -0.86972046 1.89505 -2.1496735 2.1903687 -3.8398743c0.29534912 -1.706604 0.6234741 -3.191681 0.98443604 -4.455246c0.5086365 -1.5096893 0.9762268 -3.2409058 1.402832 -5.1936646c0.4265747 -1.9527588 -0.66448975 -3.6347504 -3.2732544 -5.04599z" fill-rule="evenodd" />
          <path fill="#096f9d" d="m506.17416 218.03207c-2.3790283 1.5917358 -3.8721008 3.5855255 -4.479187 5.9813385c-0.60705566 2.3794098 -1.3535767 4.9557343 -2.2395935 7.7289734c1.476654 2.609146 3.2732544 4.406006 5.389801 5.3905945c2.1329346 0.9845886 4.142853 1.9937744 6.0296936 3.027588c1.821167 1.0994568 3.6588135 2.4778748 5.5128174 4.135254c1.854065 1.640976 4.028015 2.7978516 6.5219116 3.4706573c1.3014526 0.40589905 2.5253906 0.60884094 3.671692 0.60884094c0.19763184 0 0.39294434 -0.0060272217 0.58599854 -0.018096924c0.44299316 -0.02734375 0.81762695 -0.041030884 1.1239014 -0.041030884c0.6125488 0 0.9515991 0.05470276 1.017273 0.16410828c0.13122559 0.18049622 0.123046875 0.75483704 -0.024658203 1.7230072c-0.13122559 0.96817017 0.3199463 2.23172 1.3536377 3.7906494c2.3790283 0.7548523 4.4053345 1.4112396 6.0788574 1.969162c1.6899414 0.5579376 3.2322388 1.279953 4.626892 2.166092c0.03277588 0.016418457 0.17224121 0.19689941 0.418396 0.5415039c0.24609375 0.3446045 0.65625 0.70562744 1.2305298 1.0830383c0.7383423 0.45947266 1.5012817 0.77127075 2.2888184 0.93536377c0.19665527 0.040985107 0.38562012 0.0819397 0.56689453 0.122924805l0 0c-0.095825195 0.008392334 -0.19458008 0.01663208 -0.2962036 0.024780273c-0.8039551 0.049224854 -1.6160889 0.27896118 -2.4364624 0.68917847c-1.7719727 0.7220459 -3.5029297 1.6573792 -5.192932 2.8060608c-1.673523 1.1322937 -3.4290771 2.108673 -5.2667236 2.9291382c-1.9032593 0.853302 -3.822876 1.5999451 -5.758972 2.2399292c-1.9196167 0.6235657 -3.8720703 1.2553406 -5.857361 1.8953247c-1.9852905 0.63998413 -3.945984 1.3291931 -5.882019 2.067627c-1.9196777 0.7220459 -3.7080383 1.6573792 -5.3651733 2.8060608c-1.164917 0.63998413 -2.0427246 1.214325 -2.6333923 1.7230225c-0.33587646 0.2975464 -0.79525757 0.44628906 -1.3781128 0.44628906c-0.41363525 0 -0.88949585 -0.074920654 -1.4275208 -0.22476196c-1.6243286 1.181488 -2.9861145 2.084015 -4.0854187 2.707611c-1.0828857 0.6071472 -2.4364624 1.3702087 -4.060791 2.289154c-1.0008545 0.6727905 -2.3544617 1.214325 -4.060791 1.6245422c-1.7063599 0.4102478 -3.092804 1.1486816 -4.1592712 2.215332c-1.1813049 1.0338135 -1.8868103 2.3876038 -2.116516 4.0614014c-0.22970581 1.6573792 -0.52505493 3.1096497 -0.88601685 4.356781c-0.50860596 1.6245422 -0.9762268 3.3804016 -1.4028015 5.267517c-0.44299316 1.8871155 0.6480713 3.5444946 3.2732544 4.9721375c2.5431213 -0.4430542 4.372528 -1.0420227 5.48822 -1.796875c1.1321106 -0.7548218 2.3462524 -1.45224 3.6424255 -2.0922241c0.6890869 -0.3446045 1.493042 -0.67282104 2.4118652 -0.9845886c0.91882324 -0.31176758 1.8211975 -0.73843384 2.7072144 -1.2799683c1.98526 -1.0009766 3.9705505 -2.1496582 5.955841 -3.446045c1.98526 -1.3127747 3.7900696 -2.289154 5.4143677 -2.9291077c0.88604736 -0.3446045 1.9278564 -0.64819336 3.1256104 -0.9107361c1.1977539 -0.2789917 2.18219 -0.7302551 2.953308 -1.3538208c1.2962036 -1.0502014 2.1083374 -1.9855652 2.4364624 -2.8060608c0.3446045 -0.8204956 0.69732666 -1.2471313 1.0582886 -1.2799377c0.043762207 -0.005493164 0.08795166 -0.0082092285 0.1326294 -0.0082092285c0.22332764 0 0.4580078 0.068359375 0.7041626 0.20510864c0.12194824 0.057800293 0.32055664 0.08670044 0.5958252 0.08670044c0.4281006 0 1.041687 -0.06991577 1.8406372 -0.20977783c2.329834 -1.0994263 4.7991333 -1.9937744 7.407898 -2.6829834c2.625183 -0.7055969 5.3651733 -1.7722473 8.220032 -3.1998901c2.18219 -0.93536377 4.183838 -2.0429993 6.005066 -3.3229675c1.8376465 -1.2963562 3.6260376 -2.3547974 5.3651733 -3.175293c0.75476074 -0.32818604 1.673584 -0.6317749 2.7564087 -0.9107361c1.0993042 -0.29534912 2.206787 -0.61535645 3.3225098 -0.95996094c1.1320801 -0.36102295 2.2888184 -0.7630615 3.4701538 -1.2061157c1.1812744 -0.45947266 2.239563 -1.0994568 3.1748047 -1.9199219c0.77111816 -0.7548523 1.6489258 -1.9363403 2.6333618 -3.5444946c1.0008545 -1.6081543 1.6407471 -2.9537659 1.9196167 -4.036804c0.31176758 -1.8542786 -0.123046875 -3.6757812 -1.3043823 -5.4644165c-1.164917 -1.7886658 -2.3461914 -3.1670837 -3.5439453 -4.135254c-0.7055054 -0.52511597 -1.3618164 -0.84510803 -1.9688721 -0.9599762c-0.5906372 -0.114868164 -0.9434204 -0.19691467 -1.0582886 -0.24613953c-0.21325684 -0.18051147 -0.51678467 -0.58255005 -0.9105835 -1.2061157c-0.39379883 -0.6235657 -1.1157227 -1.1979065 -2.1657715 -1.7230225c-0.7219238 -0.27896118 -1.3864136 -0.46768188 -1.9934692 -0.5661316c-0.60705566 -0.098464966 -1.0910645 -0.23794556 -1.4520264 -0.41845703c-0.32818604 -0.16409302 -0.7055664 -0.47587585 -1.1321411 -0.9353485c-0.4265747 -0.47587585 -0.98443604 -1.0009918 -1.673523 -1.5753326c-0.836792 -0.7056122 -1.6325073 -1.1650848 -2.387268 -1.378418c-0.7383423 -0.21331787 -1.402832 -0.5004883 -1.9934692 -0.86151123c-0.7219238 -0.45947266 -1.4192505 -0.94355774 -2.091919 -1.4522552c-0.65631104 -0.5251007 -1.4110718 -1.1076508 -2.2642212 -1.7476349c-0.7875366 -0.5086975 -1.5504761 -1.0338135 -2.2888184 -1.5753326c-0.7383423 -0.54151917 -1.5587158 -1.0912476 -2.4611206 -1.6491699c-0.65625 -0.3282013 -1.2469482 -0.53330994 -1.7719727 -0.6153717c-0.50860596 -0.09844971 -0.8695679 -0.21331787 -1.0828857 -0.3446045c-1.0172119 -0.689209 -2.0426636 -1.542511 -3.076355 -2.559906c-1.017273 -1.0174103 -2.4036865 -1.7804565 -4.1592407 -2.289154c-1.6571045 -0.4922943 -3.281433 -0.9845886 -4.872986 -1.4768829c-1.5914917 -0.5086975 -2.8548584 -1.0994415 -3.790039 -1.7722473c-0.2625122 -0.16409302 -0.5496826 -0.46766663 -0.86138916 -0.9107361c-0.31176758 -0.44306946 -0.8039551 -0.9353485 -1.4766846 -1.4768677c-0.7546997 -0.6071625 -1.4274292 -0.9845886 -2.0180664 -1.1322784c-0.59069824 -0.14768982 -1.017273 -0.31999207 -1.2797852 -0.51690674c-0.91882324 -0.689209 -1.8868408 -1.6819916 -2.9040833 -2.978363c-1.0008545 -1.2963562 -2.8138428 -1.9445496 -5.439026 -1.9445496z" fill-rule="evenodd" />
          <path stroke="#ffffff" stroke-width="16.0" stroke-linejoin="round" stroke-linecap="butt" d="m506.17416 218.03207c-2.3790283 1.5917358 -3.8721008 3.5855255 -4.479187 5.9813385c-0.60705566 2.3794098 -1.3535767 4.9557343 -2.2395935 7.7289734c1.476654 2.609146 3.2732544 4.406006 5.389801 5.3905945c2.1329346 0.9845886 4.142853 1.9937744 6.0296936 3.027588c1.821167 1.0994568 3.6588135 2.4778748 5.5128174 4.135254c1.854065 1.640976 4.028015 2.7978516 6.5219116 3.4706573c1.3014526 0.40589905 2.5253906 0.60884094 3.671692 0.60884094c0.19763184 0 0.39294434 -0.0060272217 0.58599854 -0.018096924c0.44299316 -0.02734375 0.81762695 -0.041030884 1.1239014 -0.041030884c0.6125488 0 0.9515991 0.05470276 1.017273 0.16410828c0.13122559 0.18049622 0.123046875 0.75483704 -0.024658203 1.7230072c-0.13122559 0.96817017 0.3199463 2.23172 1.3536377 3.7906494c2.3790283 0.7548523 4.4053345 1.4112396 6.0788574 1.969162c1.6899414 0.5579376 3.2322388 1.279953 4.626892 2.166092c0.03277588 0.016418457 0.17224121 0.19689941 0.418396 0.5415039c0.24609375 0.3446045 0.65625 0.70562744 1.2305298 1.0830383c0.7383423 0.45947266 1.5012817 0.77127075 2.2888184 0.93536377c0.19665527 0.040985107 0.38562012 0.0819397 0.56689453 0.122924805l0 0c-0.095825195 0.008392334 -0.19458008 0.01663208 -0.2962036 0.024780273c-0.8039551 0.049224854 -1.6160889 0.27896118 -2.4364624 0.68917847c-1.7719727 0.7220459 -3.5029297 1.6573792 -5.192932 2.8060608c-1.673523 1.1322937 -3.4290771 2.108673 -5.2667236 2.9291382c-1.9032593 0.853302 -3.822876 1.5999451 -5.758972 2.2399292c-1.9196167 0.6235657 -3.8720703 1.2553406 -5.857361 1.8953247c-1.9852905 0.63998413 -3.945984 1.3291931 -5.882019 2.067627c-1.9196777 0.7220459 -3.7080383 1.6573792 -5.3651733 2.8060608c-1.164917 0.63998413 -2.0427246 1.214325 -2.6333923 1.7230225c-0.33587646 0.2975464 -0.79525757 0.44628906 -1.3781128 0.44628906c-0.41363525 0 -0.88949585 -0.074920654 -1.4275208 -0.22476196c-1.6243286 1.181488 -2.9861145 2.084015 -4.0854187 2.707611c-1.0828857 0.6071472 -2.4364624 1.3702087 -4.060791 2.289154c-1.0008545 0.6727905 -2.3544617 1.214325 -4.060791 1.6245422c-1.7063599 0.4102478 -3.092804 1.1486816 -4.1592712 2.215332c-1.1813049 1.0338135 -1.8868103 2.3876038 -2.116516 4.0614014c-0.22970581 1.6573792 -0.52505493 3.1096497 -0.88601685 4.356781c-0.50860596 1.6245422 -0.9762268 3.3804016 -1.4028015 5.267517c-0.44299316 1.8871155 0.6480713 3.5444946 3.2732544 4.9721375c2.5431213 -0.4430542 4.372528 -1.0420227 5.48822 -1.796875c1.1321106 -0.7548218 2.3462524 -1.45224 3.6424255 -2.0922241c0.6890869 -0.3446045 1.493042 -0.67282104 2.4118652 -0.9845886c0.91882324 -0.31176758 1.8211975 -0.73843384 2.7072144 -1.2799683c1.98526 -1.0009766 3.9705505 -2.1496582 5.955841 -3.446045c1.98526 -1.3127747 3.7900696 -2.289154 5.4143677 -2.9291077c0.88604736 -0.3446045 1.9278564 -0.64819336 3.1256104 -0.9107361c1.1977539 -0.2789917 2.18219 -0.7302551 2.953308 -1.3538208c1.2962036 -1.0502014 2.1083374 -1.9855652 2.4364624 -2.8060608c0.3446045 -0.8204956 0.69732666 -1.2471313 1.0582886 -1.2799377c0.043762207 -0.005493164 0.08795166 -0.0082092285 0.1326294 -0.0082092285c0.22332764 0 0.4580078 0.068359375 0.7041626 0.20510864c0.12194824 0.057800293 0.32055664 0.08670044 0.5958252 0.08670044c0.4281006 0 1.041687 -0.06991577 1.8406372 -0.20977783c2.329834 -1.0994263 4.7991333 -1.9937744 7.407898 -2.6829834c2.625183 -0.7055969 5.3651733 -1.7722473 8.220032 -3.1998901c2.18219 -0.93536377 4.183838 -2.0429993 6.005066 -3.3229675c1.8376465 -1.2963562 3.6260376 -2.3547974 5.3651733 -3.175293c0.75476074 -0.32818604 1.673584 -0.6317749 2.7564087 -0.9107361c1.0993042 -0.29534912 2.206787 -0.61535645 3.3225098 -0.95996094c1.1320801 -0.36102295 2.2888184 -0.7630615 3.4701538 -1.2061157c1.1812744 -0.45947266 2.239563 -1.0994568 3.1748047 -1.9199219c0.77111816 -0.7548523 1.6489258 -1.9363403 2.6333618 -3.5444946c1.0008545 -1.6081543 1.6407471 -2.9537659 1.9196167 -4.036804c0.31176758 -1.8542786 -0.123046875 -3.6757812 -1.3043823 -5.4644165c-1.164917 -1.7886658 -2.3461914 -3.1670837 -3.5439453 -4.135254c-0.7055054 -0.52511597 -1.3618164 -0.84510803 -1.9688721 -0.9599762c-0.5906372 -0.114868164 -0.9434204 -0.19691467 -1.0582886 -0.24613953c-0.21325684 -0.18051147 -0.51678467 -0.58255005 -0.9105835 -1.2061157c-0.39379883 -0.6235657 -1.1157227 -1.1979065 -2.1657715 -1.7230225c-0.7219238 -0.27896118 -1.3864136 -0.46768188 -1.9934692 -0.5661316c-0.60705566 -0.098464966 -1.0910645 -0.23794556 -1.4520264 -0.41845703c-0.32818604 -0.16409302 -0.7055664 -0.47587585 -1.1321411 -0.9353485c-0.4265747 -0.47587585 -0.98443604 -1.0009918 -1.673523 -1.5753326c-0.836792 -0.7056122 -1.6325073 -1.1650848 -2.387268 -1.378418c-0.7383423 -0.21331787 -1.402832 -0.5004883 -1.9934692 -0.86151123c-0.7219238 -0.45947266 -1.4192505 -0.94355774 -2.091919 -1.4522552c-0.65631104 -0.5251007 -1.4110718 -1.1076508 -2.2642212 -1.7476349c-0.7875366 -0.5086975 -1.5504761 -1.0338135 -2.2888184 -1.5753326c-0.7383423 -0.54151917 -1.5587158 -1.0912476 -2.4611206 -1.6491699c-0.65625 -0.3282013 -1.2469482 -0.53330994 -1.7719727 -0.6153717c-0.50860596 -0.09844971 -0.8695679 -0.21331787 -1.0828857 -0.3446045c-1.0172119 -0.689209 -2.0426636 -1.542511 -3.076355 -2.559906c-1.017273 -1.0174103 -2.4036865 -1.7804565 -4.1592407 -2.289154c-1.6571045 -0.4922943 -3.281433 -0.9845886 -4.872986 -1.4768829c-1.5914917 -0.5086975 -2.8548584 -1.0994415 -3.790039 -1.7722473c-0.2625122 -0.16409302 -0.5496826 -0.46766663 -0.86138916 -0.9107361c-0.31176758 -0.44306946 -0.8039551 -0.9353485 -1.4766846 -1.4768677c-0.7546997 -0.6071625 -1.4274292 -0.9845886 -2.0180664 -1.1322784c-0.59069824 -0.14768982 -1.017273 -0.31999207 -1.2797852 -0.51690674c-0.91882324 -0.689209 -1.8868408 -1.6819916 -2.9040833 -2.978363c-1.0008545 -1.2963562 -2.8138428 -1.9445496 -5.439026 -1.9445496z" fill-rule="evenodd" />
          <path fill="#096f9d" d="m469.9752 218.631c-2.5431213 0.44306946 -4.3889465 1.0502319 -5.537445 1.8214874c-1.1321106 0.75483704 -2.3462524 1.5014801 -3.6424255 2.239914c-0.6234741 0.3117981 -1.3946228 0.5989685 -2.313446 0.86151123c-0.9187927 0.24615479 -1.8294067 0.6564026 -2.7318115 1.2307281c-2.1001282 0.9845886 -4.126404 2.1332703 -6.078888 3.446045c-1.9360657 1.3127747 -3.7080383 2.289154 -5.3159485 2.9291382c-0.8695984 0.3446045 -1.9278564 0.6563873 -3.1748047 0.9353485c-1.2469788 0.26255798 -2.2806091 0.72203064 -3.1009827 1.378418c-1.164917 1.0338135 -1.9360657 1.9609528 -2.3134155 2.7814484c-0.3609619 0.80407715 -0.75476074 1.2225189 -1.1813354 1.2553406c-0.03579712 0.0059661865 -0.0743103 0.00894165 -0.11553955 0.00894165c-0.18548584 0 -0.42590332 -0.060409546 -0.7212219 -0.1812439c-0.15042114 -0.068374634 -0.36917114 -0.10256958 -0.65631104 -0.10256958c-0.40197754 0 -0.93795776 0.0670166 -1.6079102 0.20101929c-2.4118652 1.11586 -4.92218 2.0430145 -7.530945 2.7814484c-2.6087646 0.73843384 -5.348755 1.7722473 -8.220032 3.1014404c-2.0837402 0.9353485 -4.0854187 2.067627 -6.005066 3.3968048c-1.9196472 1.3291931 -3.6998596 2.3547974 -5.340576 3.076828c-0.7711487 0.3446045 -1.6817627 0.66459656 -2.7318115 0.95996094c-1.0336609 0.27896118 -2.149353 0.59895325 -3.3470764 0.9599762c-1.1813354 0.3610077 -2.3380432 0.7958679 -3.4701538 1.3045654c-1.1321106 0.50871277 -2.1247559 1.1322784 -2.9779358 1.8707123c-0.77111816 0.63998413 -1.673523 1.7886505 -2.7071838 3.4460297c-1.0172424 1.6409912 -1.657135 3.0604248 -1.9196472 4.2583313c-0.18048096 1.0338135 -0.106658936 2.018402 0.22149658 2.9537354c0.34454346 0.93536377 0.7219238 1.796875 1.1321106 2.5845337c0.4265747 0.77127075 0.98443604 1.5343018 1.673523 2.289154c0.68911743 0.73843384 1.3371887 1.2963867 1.9442749 1.6737976c0.6234741 0.45947266 1.2141418 0.74664307 1.7719727 0.86151123c0.5024719 0.100494385 0.7725525 0.15075684 0.8102417 0.15075684c0.0024108887 0 0.0038757324 -2.1362305E-4 0.0043945312 -6.1035156E-4l0 0c0.22973633 0.23049927 0.58169556 0.6809387 1.0557861 1.3513489c0.49224854 0.6563721 1.2305603 1.1979065 2.2149963 1.6245422c0.672699 0.39382935 1.3289795 0.63998413 1.9688721 0.73843384c0.6398926 0.098480225 1.0993042 0.22976685 1.3782043 0.39385986c0.44299316 0.22973633 0.9024048 0.55792236 1.3782349 0.9845581c0.47579956 0.42666626 1.0500488 0.92715454 1.7227478 1.5014954c0.8367615 0.5415344 1.5915222 0.93536377 2.2642212 1.181488c0.672699 0.24615479 1.2879639 0.5661621 1.8457947 0.95999146c0.7383423 0.45947266 1.476654 0.9845886 2.2149963 1.5753174c0.73831177 0.5907593 1.5422974 1.1568909 2.4118652 1.6984253c0.7219238 0.45944214 1.4274292 0.95996094 2.1165466 1.5014648c0.68911743 0.5415344 1.5176697 1.1158752 2.4856873 1.7230225c0.7711487 0.29537964 1.3372192 0.48410034 1.6981812 0.5661316c0.37734985 0.08206177 0.7055054 0.22973633 0.98443604 0.44308472c1.1977234 0.73843384 2.2724 1.5917358 3.2240295 2.559906c0.9680176 0.9517517 2.2887878 1.6819763 3.9623413 2.1907043c1.7720032 0.49227905 3.4537354 0.99276733 5.0452576 1.5014648c1.6079102 0.49230957 2.9286804 1.0830383 3.9623413 1.7722473c0.18048096 0.114868164 0.40197754 0.39385986 0.66448975 0.83691406c0.27893066 0.4430542 0.7711487 0.9517517 1.476654 1.5260925c0.7711487 0.6235657 1.4520569 1.0010071 2.0427246 1.1322632c0.60705566 0.13128662 1.0336609 0.32821655 1.2797546 0.5907593c0.98443604 0.70562744 1.9278564 1.6901855 2.8302612 2.9537659c0.9024048 1.2635498 2.7974548 1.8952942 5.6851196 1.8952942c2.2478027 -1.6081543 3.675232 -3.6019287 4.2822876 -5.9813232c0.6070862 -2.3793945 1.3536072 -4.955719 2.239624 -7.7289734c-1.4766846 -2.6255493 -3.2732544 -4.3977966 -5.389801 -5.316742c-2.1001282 -0.9189453 -4.0526123 -1.9445496 -5.8573914 -3.0768433c-1.9360657 -1.1158447 -3.8065186 -2.4942627 -5.6112976 -4.1352234c-1.7883911 -1.6574097 -3.9377441 -2.8224792 -6.448059 -3.4952698c-1.3014832 -0.4059143 -2.531372 -0.6088562 -3.6896057 -0.6088562c-0.19970703 0 -0.39727783 0.0060424805 -0.5927124 0.018096924c-0.3645935 0.02279663 -0.68362427 0.034179688 -0.9570923 0.034179688c-0.710968 0 -1.1138611 -0.07702637 -1.2086487 -0.23110962c-0.09844971 -0.11483765 -0.08206177 -0.6645813 0.049224854 -1.6491699c0.14764404 -0.9845886 -0.29534912 -2.248108 -1.32901 -3.7906494c-2.3790588 -0.7548218 -4.421753 -1.4112244 -6.128113 -1.9691467c-1.6876221 -0.57354736 -3.2279968 -1.253479 -4.6211243 -2.0397644l0 0c0.0028686523 -0.011169434 -0.10568237 -0.19274902 -0.3256836 -0.5447693c-0.24609375 -0.39382935 -0.69729614 -0.8122864 -1.3535767 -1.2553406c-0.85317993 -0.42666626 -1.6735535 -0.7220154 -2.46109 -0.8861389c-0.15264893 -0.034973145 -0.30096436 -0.068725586 -0.4449768 -0.10122681l0 0c0.09631348 -0.0076293945 0.19543457 -0.014892578 0.29730225 -0.021820068c0.73831177 -0.06564331 1.5751038 -0.29537964 2.510315 -0.689209c1.6899414 -0.73846436 3.4127197 -1.6573792 5.168274 -2.756836c1.7555847 -1.0994568 3.4701538 -2.1168518 5.1437073 -3.0522156c1.8211975 -0.8204956 3.7408447 -1.542511 5.7589417 -2.1660767c2.018097 -0.6235657 4.0279846 -1.2307281 6.0296936 -1.8214874c2.0016785 -0.6071625 3.9705505 -1.3045654 5.906616 -2.0922394c1.9360352 -0.7876587 3.7408447 -1.7558289 5.414398 -2.9045105c1.0172424 -0.6235657 1.8294067 -1.1650848 2.4364624 -1.6245575c0.33218384 -0.26039124 0.7822571 -0.39059448 1.3502197 -0.39059448c0.47003174 0 1.020813 0.08917236 1.6523132 0.2675171c1.5258789 -1.2307281 2.854889 -2.174286 3.986969 -2.8306732c1.148529 -0.6563873 2.4447021 -1.4276428 3.8885498 -2.3137665c1.0992737 -0.5743408 2.5021057 -1.0994568 4.2084656 -1.5753326c1.7227478 -0.4922943 3.076355 -1.2963715 4.060791 -2.4122314c1.164917 -0.86972046 1.89505 -2.1496735 2.1903687 -3.8398743c0.29534912 -1.706604 0.6234741 -3.191681 0.98443604 -4.4552307c0.5086365 -1.5097046 0.9762268 -3.240921 1.402832 -5.19368c0.4265747 -1.9527588 -0.66448975 -3.6347504 -3.2732544 -5.04599z" fill-rule="evenodd" />
          <path fill="#096f9d" d="m506.17416 218.631c-2.3790283 1.5917511 -3.8721008 3.5855255 -4.479187 5.9813385c-0.60705566 2.3794098 -1.3535767 4.9557495 -2.2395935 7.7289734c1.476654 2.609146 3.2732544 4.406021 5.389801 5.3905945c2.1329346 0.9845886 4.142853 1.9937744 6.0296936 3.027588c1.821167 1.0994568 3.6588135 2.4778748 5.5128174 4.135254c1.854065 1.640976 4.028015 2.7978516 6.5219116 3.4706573c1.3014526 0.40589905 2.5253906 0.60884094 3.671692 0.60884094c0.19763184 0 0.39294434 -0.0060272217 0.58599854 -0.018096924c0.44299316 -0.02734375 0.81762695 -0.041030884 1.1239014 -0.041030884c0.6125488 0 0.9515991 0.05470276 1.017273 0.16410828c0.13122559 0.18049622 0.123046875 0.75483704 -0.024658203 1.7230225c-0.13122559 0.96817017 0.3199463 2.2317047 1.3536377 3.7906342c2.3790283 0.7548523 4.4053345 1.4112396 6.0788574 1.969162c1.6899414 0.5579529 3.2322388 1.2799683 4.626892 2.1660767c0.03277588 0.016418457 0.17224121 0.19692993 0.418396 0.5415344c0.24609375 0.3446045 0.65625 0.70562744 1.2305298 1.0830383c0.7383423 0.45947266 1.5012817 0.77127075 2.2888184 0.93536377c0.19665527 0.04095459 0.38562012 0.0819397 0.56689453 0.12289429l0 0c-0.095825195 0.008392334 -0.19458008 0.016662598 -0.2962036 0.024780273c-0.8039551 0.049224854 -1.6160889 0.27896118 -2.4364624 0.689209c-1.7719727 0.7220154 -3.5029297 1.6573792 -5.192932 2.8060608c-1.673523 1.1322632 -3.4290771 2.1086426 -5.2667236 2.9291382c-1.9032593 0.853302 -3.822876 1.5999451 -5.758972 2.2399292c-1.9196167 0.6235657 -3.8720703 1.2553406 -5.857361 1.8953247c-1.9852905 0.6399536 -3.945984 1.3291626 -5.882019 2.067627c-1.9196777 0.7220154 -3.7080383 1.6573792 -5.3651733 2.8060608c-1.164917 0.6399536 -2.0427246 1.2142944 -2.6333923 1.722992c-0.33587646 0.2975464 -0.79525757 0.44631958 -1.3781128 0.44631958c-0.41363525 0 -0.88949585 -0.074920654 -1.4275208 -0.22476196c-1.6243286 1.181488 -2.9861145 2.084015 -4.0854187 2.7075806c-1.0828857 0.60717773 -2.4364624 1.3702087 -4.060791 2.289154c-1.0008545 0.67282104 -2.3544617 1.214325 -4.060791 1.6245728c-1.7063599 0.4102478 -3.092804 1.1486816 -4.1592712 2.2153015c-1.1813049 1.0338135 -1.8868103 2.3876343 -2.116516 4.0614014c-0.22970581 1.6574097 -0.52505493 3.1096497 -0.88601685 4.356781c-0.50860596 1.6245728 -0.9762268 3.3804016 -1.4028015 5.267517c-0.44299316 1.8871155 0.6480713 3.5444946 3.2732544 4.9721375c2.5431213 -0.4430542 4.372528 -1.0420227 5.48822 -1.7968445c1.1321106 -0.7548523 2.3462524 -1.4522705 3.6424255 -2.0922546c0.6890869 -0.3446045 1.493042 -0.6727905 2.4118652 -0.9845581c0.91882324 -0.3117981 1.8211975 -0.73846436 2.7072144 -1.2799683c1.98526 -1.0010071 3.9705505 -2.1496582 5.955841 -3.446045c1.98526 -1.3127747 3.7900696 -2.289154 5.4143677 -2.9291382c0.88604736 -0.3446045 1.9278564 -0.64819336 3.1256104 -0.9107361c1.1977539 -0.27896118 2.18219 -0.7302246 2.953308 -1.3537903c1.2962036 -1.0502319 2.1083374 -1.9855652 2.4364624 -2.8060608c0.3446045 -0.8204956 0.69732666 -1.2471619 1.0582886 -1.2799683c0.043762207 -0.0054626465 0.08795166 -0.0082092285 0.1326294 -0.0082092285c0.22332764 0 0.4580078 0.06838989 0.7041626 0.20513916c0.12194824 0.057800293 0.32055664 0.08666992 0.5958252 0.08666992c0.4281006 0 1.041687 -0.06991577 1.8406372 -0.20974731c2.329834 -1.0994568 4.7991333 -1.9937744 7.407898 -2.6829834c2.625183 -0.70562744 5.3651733 -1.7722473 8.220032 -3.1998901c2.18219 -0.93536377 4.183838 -2.0430298 6.005066 -3.3229675c1.8376465 -1.2963867 3.6260376 -2.3547974 5.3651733 -3.175293c0.75476074 -0.32818604 1.673584 -0.6317749 2.7564087 -0.9107361c1.0993042 -0.29537964 2.206787 -0.61535645 3.3225098 -0.95996094c1.1320801 -0.36102295 2.2888184 -0.7630615 3.4701538 -1.2061157c1.1812744 -0.45947266 2.239563 -1.0994568 3.1748047 -1.9199524c0.77111816 -0.7548523 1.6489258 -1.9363403 2.6333618 -3.5444946c1.0008545 -1.6081543 1.6407471 -2.9537354 1.9196167 -4.0367737c0.31176758 -1.8543091 -0.123046875 -3.6757812 -1.3043823 -5.464447c-1.164917 -1.7886505 -2.3461914 -3.1670685 -3.5439453 -4.1352386c-0.7055054 -0.52511597 -1.3618164 -0.84510803 -1.9688721 -0.9599762c-0.5906372 -0.114868164 -0.9434204 -0.19691467 -1.0582886 -0.24613953c-0.21325684 -0.18051147 -0.51678467 -0.5825348 -0.9105835 -1.2061157c-0.39379883 -0.6235657 -1.1157227 -1.1979065 -2.1657715 -1.7230225c-0.7219238 -0.27896118 -1.3864136 -0.46766663 -1.9934692 -0.5661316c-0.60705566 -0.098464966 -1.0910645 -0.23794556 -1.4520264 -0.41844177c-0.32818604 -0.16410828 -0.7055664 -0.4758911 -1.1321411 -0.93536377c-0.4265747 -0.47587585 -0.98443604 -1.0009766 -1.673523 -1.5753326c-0.836792 -0.7056122 -1.6325073 -1.1650848 -2.387268 -1.378418c-0.7383423 -0.21331787 -1.402832 -0.5004883 -1.9934692 -0.861496c-0.7219238 -0.45948792 -1.4192505 -0.943573 -2.091919 -1.4522705c-0.65631104 -0.5251007 -1.4110718 -1.1076508 -2.2642212 -1.7476349c-0.7875366 -0.5086975 -1.5504761 -1.0338135 -2.2888184 -1.5753326c-0.7383423 -0.54151917 -1.5587158 -1.0912323 -2.4611206 -1.6491699c-0.65625 -0.32818604 -1.2469482 -0.53330994 -1.7719727 -0.6153717c-0.50860596 -0.09844971 -0.8695679 -0.21331787 -1.0828857 -0.3446045c-1.0172119 -0.6891937 -2.0426636 -1.542511 -3.076355 -2.559906c-1.017273 -1.017395 -2.4036865 -1.7804565 -4.1592407 -2.289154c-1.6571045 -0.4922943 -3.281433 -0.9845886 -4.872986 -1.4768829c-1.5914917 -0.5086975 -2.8548584 -1.0994415 -3.790039 -1.7722473c-0.2625122 -0.16409302 -0.5496826 -0.46766663 -0.86138916 -0.9107361c-0.31176758 -0.4430542 -0.8039551 -0.9353485 -1.4766846 -1.4768677c-0.7546997 -0.6071625 -1.4274292 -0.9845886 -2.0180664 -1.1322784c-0.59069824 -0.14768982 -1.017273 -0.31999207 -1.2797852 -0.51690674c-0.91882324 -0.689209 -1.8868408 -1.6819916 -2.9040833 -2.978363c-1.0008545 -1.2963562 -2.8138428 -1.9445496 -5.439026 -1.9445496z" fill-rule="evenodd" />
        </g>
      </svg>
